<svg width="1024" height="1024" viewBox="0 0 1024 1024" fill="none" xmlns="http://www.w3.org/2000/svg">
<g clip-path="url(#clip0_16_21231)">
<path d="M715.098 286.739C719.553 286.741 724.002 286.656 728.456 286.566C754.923 286.331 754.923 286.331 766.152 295.09C770.184 299.38 771.604 302.789 772.686 308.575C773.093 310.679 773.5 312.784 773.92 314.952C775.988 329.691 777.657 344.448 779.053 359.266C780.647 359.44 782.241 359.613 783.884 359.793C793.696 361.805 802.528 365.439 811.779 369.225C814.483 370.304 814.483 370.304 817.242 371.404C824.554 374.363 831.179 377.083 837.748 381.499C842.139 384.333 842.139 384.333 847.115 382.752C853.748 378.915 859.69 374.407 865.643 369.608C888.633 351.235 888.633 351.235 904.019 351.804C915.213 354.553 922.094 363.421 929.821 371.523C932.156 373.837 934.499 376.143 936.849 378.442C960.041 401.246 960.041 401.246 961.146 410.85C959.606 426.298 948.503 438.027 939.061 449.73C931.639 458.81 931.639 458.81 927.784 469.585C929.581 475.341 932.373 480.419 935.297 485.673C936.794 488.475 938.288 491.278 939.777 494.084C940.511 495.463 941.245 496.843 942.001 498.264C948.214 510.223 951.743 521.811 954.27 534.959C956.489 535.189 956.489 535.189 958.752 535.424C965.495 536.138 972.234 536.889 978.974 537.64C981.301 537.881 983.628 538.122 986.025 538.37C999.402 539.891 1009.45 541.798 1020.74 549.463C1025.19 555.631 1024.41 562.34 1024.35 569.673C1024.36 571.273 1024.37 572.872 1024.37 574.52C1024.38 577.903 1024.36 581.286 1024.34 584.669C1024.31 589.83 1024.34 594.988 1024.38 600.15C1024.37 603.44 1024.37 606.731 1024.35 610.021C1024.37 611.558 1024.38 613.095 1024.39 614.678C1024.27 623.859 1023.09 629.804 1017.43 637.106C1001.01 646.193 972.798 649.364 954.27 649.364C953.947 650.554 953.624 651.744 953.291 652.971C947.695 672.689 940.411 691.37 929.455 708.737C927.305 713.829 928.046 715.685 929.821 720.867C932.406 724.964 932.406 724.964 935.671 728.975C937.426 731.23 937.426 731.23 939.216 733.531C940.444 735.082 941.672 736.634 942.937 738.232C945.36 741.313 947.777 744.398 950.187 747.489C951.263 748.849 952.338 750.209 953.446 751.611C959.839 760.516 961.68 766.949 960.382 778.069C956.339 783.967 956.339 783.967 950.705 789.688C949.709 790.715 948.714 791.742 947.688 792.8C945.572 794.971 943.44 797.126 941.293 799.266C937.927 802.628 934.623 806.042 931.325 809.471C929.171 811.69 927.014 813.906 924.855 816.119C923.341 817.678 923.341 817.678 921.797 819.269C914.514 826.582 909.715 830.727 899.403 831.816C892.184 831.088 888.692 829.232 882.706 825.184C880.784 823.905 878.861 822.625 876.88 821.306C872.544 818.185 868.367 815.04 864.21 811.698C863.131 810.842 862.052 809.986 860.94 809.104C857.877 806.646 854.859 804.134 851.843 801.619C850.009 800.589 848.176 799.559 846.287 798.499C841.268 800.021 841.268 800.021 836.1 802.584C833.804 803.617 833.804 803.617 831.462 804.671C829.912 805.394 828.362 806.117 826.765 806.862C825.033 807.66 823.301 808.458 821.516 809.28C817.931 810.936 814.349 812.601 810.772 814.275C800.28 819.087 790.341 822.638 779.053 825.057C778.911 826.54 778.768 828.023 778.621 829.551C777.951 836.314 777.229 843.07 776.506 849.827C776.283 852.161 776.06 854.494 775.83 856.898C774.437 869.545 773.388 878.764 764.791 888.388C757.195 893.466 751.197 893.134 742.396 893.16C740.8 893.174 739.205 893.187 737.562 893.201C734.188 893.222 730.814 893.232 727.44 893.231C722.293 893.24 717.149 893.314 712.002 893.392C708.72 893.404 705.438 893.412 702.157 893.416C700.624 893.445 699.092 893.474 697.512 893.505C690.009 893.439 685.726 892.726 679.338 888.648C665.382 874.182 666.386 844.19 664.958 825.057C662.437 824.456 662.437 824.456 659.865 823.844C642.071 819.224 626.766 812.586 610.561 804.029C604.079 800.447 604.079 800.447 597.724 798.499C593.378 800.829 593.378 800.829 588.945 804.412C587.255 805.69 585.565 806.969 583.824 808.286C581.186 810.331 581.186 810.331 578.496 812.416C575.022 815.074 571.544 817.726 568.062 820.372C566.522 821.562 564.981 822.752 563.395 823.978C554.979 829.974 549.114 832.446 538.639 831.186C528.657 825.368 521.098 818.122 513.171 809.862C506.722 803.188 500.334 796.652 493.163 790.75C485.701 784.587 484.202 781.2 482.483 771.813C485.079 753.588 499.319 738.971 511.325 725.743C514.711 720.964 514.711 720.964 514.039 714.977C511.912 707.796 508.959 701.79 505.404 695.202C498.211 681.455 489.741 665.141 489.741 649.364C485.833 649.048 485.833 649.048 481.846 648.725C471.32 647.635 460.855 646.222 450.394 644.639C448.812 644.424 447.229 644.209 445.6 643.987C435.85 642.446 429.521 640.476 422.507 633.02C416.422 621.012 417.674 607.907 417.677 594.777C417.668 590.266 417.594 585.759 417.517 581.248C417.505 578.356 417.496 575.463 417.493 572.57C417.476 569.96 417.459 567.351 417.442 564.662C418.615 556.096 421.086 551.777 426.581 545.174C432.132 541.434 437.375 540.33 443.939 539.348C446.561 538.953 446.561 538.953 449.236 538.55C451.046 538.292 452.857 538.034 454.723 537.768C456.51 537.494 458.298 537.22 460.139 536.938C470.121 535.471 479.655 534.655 489.741 534.959C489.962 532.576 490.182 530.192 490.41 527.737C491.502 519.032 494.049 511.559 497.381 503.421C497.917 502.095 498.453 500.77 499.005 499.404C502.806 490.213 507.244 481.768 512.789 473.527C514.628 469.492 514.628 469.492 513.036 464.813C509.382 458.004 504.869 452.094 500.055 446.091C496.565 441.699 493.141 437.276 489.741 432.812C488.52 431.274 487.299 429.736 486.04 428.151C482.083 419.036 480.824 411.855 483.629 402.168C490.354 392.866 498.425 385.31 506.804 377.525C509.032 375.376 511.255 373.223 513.474 371.065C533.532 351.704 533.532 351.704 547.123 351.748C557.782 354.31 565.889 361.471 574.437 368.1C576.159 369.433 576.159 369.433 577.917 370.792C580.331 372.702 582.706 374.664 585.044 376.668C588.513 379.483 591.659 381.849 595.686 383.781C601.979 383.099 601.979 383.099 607.911 379.695C610.298 378.602 612.685 377.509 615.145 376.383C617.701 375.15 620.256 373.913 622.809 372.673C650.969 359.266 650.969 359.266 664.958 359.266C665.108 356.374 665.108 356.374 665.261 353.424C667.996 306.325 667.996 306.325 677.183 293.892C688.687 285.246 701.382 286.696 715.098 286.739Z" fill="#F16532"/>
<path d="M38.9937 83.8125C41.3334 83.8009 43.6731 83.7892 46.0837 83.7772C48.6763 83.7748 51.2688 83.7724 53.94 83.7699C56.7047 83.7602 59.4693 83.7497 62.234 83.7384C69.8577 83.7098 77.4814 83.6944 85.1051 83.6811C91.6377 83.6681 98.1704 83.6475 104.703 83.6268C126.23 83.5586 147.758 83.5146 169.285 83.477C174.89 83.4672 180.494 83.457 186.099 83.4467C220.889 83.3834 255.68 83.3288 290.47 83.2945C298.532 83.2864 306.594 83.2782 314.656 83.2699C316.66 83.2678 318.663 83.2658 320.728 83.2636C353.187 83.2289 385.646 83.1448 418.105 83.0407C451.418 82.9348 484.731 82.8752 518.044 82.8604C536.753 82.8508 555.461 82.8206 574.17 82.7382C590.104 82.668 606.038 82.6395 621.972 82.6654C630.102 82.6773 638.23 82.6693 646.36 82.6077C653.807 82.5518 661.252 82.5528 668.699 82.5986C672.661 82.6083 676.622 82.5576 680.582 82.5045C694.414 82.6544 703.026 84.0087 713.608 93.2524C722.11 102.082 723.506 108.568 723.439 120.722C723.44 122.1 723.441 123.479 723.442 124.899C723.438 129.427 723.39 133.953 723.342 138.48C723.33 141.631 723.322 144.781 723.316 147.931C723.292 156.202 723.232 164.472 723.164 172.742C723.101 181.189 723.073 189.637 723.043 198.085C722.977 214.645 722.872 231.204 722.743 247.764C721.54 247.783 720.336 247.802 719.096 247.822C713.542 247.933 707.991 248.104 702.438 248.275C700.546 248.304 698.654 248.333 696.704 248.363C675.401 249.112 659.638 256.73 645.1 272.314C638.976 281.001 635.924 289.305 632.617 299.397C631.891 301.605 631.164 303.813 630.416 306.088C629.593 308.611 629.593 308.611 628.754 311.184C552.765 311.418 476.776 311.599 400.787 311.706C391.815 311.719 382.843 311.733 373.871 311.746C371.192 311.75 371.192 311.75 368.459 311.754C339.54 311.799 310.622 311.879 281.704 311.973C252.03 312.069 222.356 312.126 192.682 312.147C174.372 312.161 156.063 312.205 137.753 312.288C125.197 312.342 112.64 312.358 100.084 312.345C92.8395 312.339 85.5964 312.349 78.3524 312.403C70.4929 312.463 62.6347 312.442 54.775 312.414C52.4932 312.444 50.2114 312.474 47.8605 312.505C34.1511 312.373 24.067 310.467 13.7354 300.955C5.8497 290.059 4.36723 279.778 4.50481 266.587C4.49049 264.868 4.47617 263.149 4.46142 261.379C4.4257 255.748 4.44917 250.118 4.47688 244.487C4.47137 240.55 4.46343 236.612 4.45318 232.674C4.44117 224.444 4.45855 216.214 4.49683 207.984C4.54346 197.45 4.51653 186.917 4.46764 176.382C4.43807 168.26 4.44752 160.137 4.46868 152.015C4.47412 148.131 4.46748 144.246 4.44841 140.362C4.4276 134.932 4.45938 129.505 4.50481 124.075C4.48827 122.48 4.47173 120.886 4.45468 119.243C4.61804 108.676 6.86035 102.758 13.7354 94.3276C22.5959 86.5121 27.2857 83.8464 38.9937 83.8125Z" fill="#1F4265"/>
<path d="M45.2197 635.528C47.3735 635.518 47.3736 635.518 49.5709 635.507C54.3456 635.494 59.1179 635.538 63.8924 635.583C67.3294 635.586 70.7664 635.584 74.2034 635.58C83.5082 635.577 92.812 635.626 102.117 635.683C111.85 635.734 121.583 635.739 131.317 635.749C149.737 635.774 168.157 635.842 186.577 635.924C207.552 636.016 228.528 636.061 249.503 636.102C292.641 636.188 335.778 636.332 378.915 636.515C379.709 638.05 380.504 639.585 381.322 641.166C382.922 644.198 382.922 644.198 384.554 647.291C385.6 649.291 386.647 651.291 387.726 653.352C396.835 668.587 410.982 677.188 427.848 681.638C432.434 682.002 437.021 682.343 441.61 682.663C450.176 683.743 453.25 684.401 458.829 691.172C466.816 706.605 466.816 706.605 466.332 714.519C463.797 720.256 460.292 725.003 456.647 730.094C445.918 746.012 439.117 762.621 442.12 782.139C445.581 794.066 450.261 803.511 458.431 812.905C458.431 814.258 458.431 815.612 458.431 817.007C460.218 817.796 460.218 817.796 462.04 818.602C467 821.337 470.172 824.309 474.089 828.4C475.479 829.83 476.87 831.26 478.302 832.734C481.18 835.736 484.058 838.737 486.936 841.739C494.677 849.703 502.055 856.239 511.442 862.13C511.442 862.807 511.442 863.483 511.442 864.181C450.421 864.415 389.4 864.596 328.378 864.704C321.172 864.717 313.965 864.731 306.758 864.744C304.606 864.748 304.606 864.748 302.41 864.752C279.19 864.797 255.97 864.878 232.75 864.972C208.918 865.068 185.086 865.125 161.254 865.146C147.87 865.159 134.487 865.19 121.103 865.265C108.505 865.335 95.9082 865.356 83.3099 865.341C78.6875 865.344 74.0651 865.364 69.4428 865.403C63.1262 865.454 56.8128 865.442 50.4961 865.414C48.6714 865.444 46.8467 865.474 44.9667 865.505C32.4375 865.355 23.4822 862.33 13.9564 853.926C6.0797 843.05 4.60272 832.685 4.71324 819.502C4.69568 817.782 4.67811 816.062 4.66001 814.291C4.61405 808.655 4.6275 803.021 4.64604 797.386C4.63536 793.443 4.62256 789.5 4.60775 785.557C4.58658 777.314 4.59577 769.072 4.62563 760.83C4.66071 750.287 4.61271 739.746 4.54104 729.203C4.4962 721.068 4.49919 712.934 4.5161 704.799C4.51777 700.912 4.50383 697.026 4.47375 693.139C4.43809 687.7 4.4679 682.265 4.51413 676.826C4.49029 675.235 4.46646 673.644 4.44189 672.004C4.61114 662.181 6.72263 656.013 12.4167 648.037C22.685 638.517 31.3966 635.487 45.2197 635.528Z" fill="#1F4264"/>
<path d="M47.4664 361.51C50.1338 361.508 50.1338 361.508 52.8551 361.505C58.8366 361.502 64.8179 361.513 70.7993 361.524C75.0779 361.525 79.3565 361.524 83.6351 361.523C95.2714 361.523 106.908 361.535 118.544 361.549C130.697 361.562 142.85 361.563 155.003 361.565C178.025 361.572 201.048 361.588 224.07 361.609C250.277 361.632 276.483 361.643 302.69 361.653C356.607 361.675 410.525 361.711 464.442 361.756C463.614 362.98 462.785 364.203 461.932 365.464C460.839 367.09 459.747 368.716 458.621 370.391C457.541 371.994 456.46 373.597 455.347 375.249C444.898 391.56 440.214 405.703 442.019 425.093C445.404 438.143 451.86 448.851 459.816 459.61C464.1 466.731 464.715 472.063 463.63 480.273C461.315 487.68 459.25 492.662 454.25 498.645C445.537 501.504 437.323 502.503 428.259 503.513C413.276 505.294 402.204 513.188 392.204 524.184C380.797 538.846 378.656 552.832 377.679 570.792C377.547 573.062 377.547 573.062 377.413 575.378C377.198 579.084 376.992 582.792 376.788 586.499C331.55 586.69 286.312 586.834 241.074 586.922C220.069 586.964 199.065 587.022 178.06 587.115C159.753 587.197 141.446 587.25 123.139 587.268C113.445 587.279 103.751 587.304 94.0574 587.363C84.9319 587.418 75.8071 587.436 66.6815 587.423C63.3337 587.426 59.9859 587.442 56.6382 587.473C52.0623 587.514 47.4891 587.504 42.913 587.482C39.0741 587.493 39.0741 587.493 35.1577 587.505C25.4661 586.102 19.5292 581.791 12.5992 575.03C5.49644 565.433 4.32474 557.875 4.49913 546.091C4.48455 544.355 4.46996 542.619 4.45493 540.83C4.42065 535.129 4.45998 529.43 4.50361 523.729C4.50192 519.748 4.4969 515.767 4.48871 511.785C4.4829 503.457 4.51277 495.13 4.56881 486.803C4.63833 476.142 4.62599 465.484 4.58784 454.823C4.56628 446.608 4.58453 438.393 4.61513 430.177C4.62567 426.247 4.62473 422.317 4.61198 418.387C4.60083 412.89 4.64248 407.396 4.6982 401.9C4.6849 400.285 4.6716 398.67 4.65789 397.007C4.84032 386.394 7.03795 380.441 13.9395 371.972C24.8491 362.104 33.2395 361.46 47.4664 361.51Z" fill="#1E4264"/>
<path d="M819.225 472.351C841.067 491.104 855.925 514.435 866.292 541.164C866.985 542.939 867.677 544.714 868.391 546.543C877.075 574.056 876.444 611.968 866.292 638.931C865.576 640.94 864.859 642.948 864.121 645.018C849.72 682.443 824.131 709.905 788.936 728.551C786.594 729.827 786.594 729.827 784.205 731.129C751.681 747.249 708.089 748.128 673.833 737.358C652.844 729.314 634.69 719.261 617.939 704.109C616.498 702.833 615.058 701.557 613.573 700.242C596.524 684.259 586.11 664.38 577.225 643.005C576.206 640.665 576.206 640.665 575.166 638.279C569.471 622.828 568.358 608.958 568.447 592.594C568.457 590.417 568.467 588.239 568.477 585.996C568.701 570.962 569.854 557.373 575.19 543.201C575.906 541.193 576.623 539.184 577.361 537.115C592.8 496.992 621.295 468.388 659.798 450.017C713.369 426.773 773.138 436.875 819.225 472.351Z" fill="#FEFDFD"/>
<path d="M363.115 141.253C369.314 144.78 374.218 149.046 377.461 155.474C377.739 161.405 377.897 167.285 377.949 173.219C377.974 175.872 377.974 175.872 377.999 178.579C378.027 182.33 378.049 186.08 378.065 189.83C378.101 195.547 378.191 201.262 378.281 206.978C378.302 210.623 378.319 214.268 378.333 217.914C378.369 219.615 378.405 221.317 378.442 223.071C378.401 234.03 376.593 240.214 369.263 248.927C362.697 253.701 356.756 254.099 348.769 252.99C341.744 248.789 337.073 244.617 334.423 236.738C334.209 234.018 334.099 231.289 334.06 228.561C334.034 226.926 334.008 225.292 333.981 223.608C333.966 221.849 333.95 220.091 333.935 218.279C333.918 216.463 333.902 214.646 333.885 212.775C333.856 208.933 333.834 205.091 333.818 201.248C333.783 195.38 333.693 189.514 333.603 183.646C333.582 179.911 333.564 176.176 333.551 172.441C333.515 170.69 333.479 168.94 333.442 167.137C333.472 158.78 333.729 154.535 338.32 147.303C345.749 140.362 353.205 139.576 363.115 141.253Z" fill="#049BD8"/>
<path d="M102.115 141.253C108.314 144.78 113.218 149.046 116.461 155.474C116.739 161.405 116.897 167.285 116.949 173.219C116.974 175.872 116.974 175.872 116.999 178.579C117.027 182.33 117.049 186.08 117.065 189.83C117.101 195.547 117.191 201.262 117.281 206.978C117.302 210.623 117.319 214.268 117.333 217.914C117.369 219.615 117.405 221.317 117.442 223.071C117.401 234.03 115.593 240.214 108.263 248.927C101.697 253.701 95.756 254.099 87.769 252.99C80.7444 248.789 76.0729 244.617 73.4232 236.738C73.2088 234.018 73.0988 231.289 73.0605 228.561C73.0342 226.926 73.0079 225.292 72.9808 223.608C72.9656 221.849 72.9505 220.091 72.9349 218.279C72.9183 216.463 72.9018 214.646 72.8848 212.775C72.8564 208.933 72.8344 205.091 72.8183 201.248C72.783 195.38 72.693 189.514 72.6027 183.646C72.5819 179.911 72.5645 176.176 72.5506 172.441C72.5147 170.69 72.4789 168.94 72.4419 167.137C72.4723 158.78 72.7294 154.535 77.3204 147.303C84.7487 140.362 92.2045 139.576 102.115 141.253Z" fill="#059AD8"/>
<path d="M275.179 140.797C282.376 144.155 284.963 146.319 289.416 152.996C289.96 156.903 289.96 156.903 290.007 161.366C290.046 163.88 290.046 163.88 290.085 166.446C290.09 168.25 290.094 170.055 290.099 171.914C290.113 173.776 290.126 175.639 290.14 177.558C290.161 181.499 290.17 185.44 290.17 189.381C290.178 195.401 290.252 201.418 290.329 207.438C290.341 211.269 290.35 215.099 290.353 218.93C290.383 220.726 290.412 222.522 290.442 224.373C290.379 232.832 290.159 237.22 285.52 244.512C278.726 250.989 275.719 252.666 266.154 252.493C257.591 250.24 254.329 247.158 248.74 240.421C243.533 230.011 246.069 213.56 245.994 201.972C245.961 198.138 245.905 194.305 245.828 190.472C245.716 184.937 245.672 179.404 245.642 173.868C245.596 172.164 245.55 170.461 245.502 168.706C245.533 160.131 246.105 154.674 251.603 147.88C259.62 140.202 264.138 140.049 275.179 140.797Z" fill="#049BD8"/>
<path d="M361.265 693.831C369.362 698.17 374.57 701.445 377.641 710.127C378.06 716.132 378.264 721.938 378.257 727.943C378.266 729.67 378.274 731.398 378.283 733.178C378.295 736.827 378.296 740.475 378.287 744.124C378.281 749.694 378.329 755.263 378.381 760.833C378.385 764.383 378.387 767.933 378.385 771.484C378.404 773.143 378.422 774.803 378.442 776.513C378.348 788.065 376.185 794.927 367.918 803.447C361.097 807.029 356.591 806.91 348.983 805.866C342.902 802.219 337.878 798.023 334.654 791.607C334.069 779.839 334.012 768.069 333.937 756.289C333.903 752.349 333.848 748.41 333.769 744.471C333.657 738.783 333.612 733.098 333.583 727.41C333.536 725.659 333.49 723.908 333.442 722.104C333.472 713.411 333.979 707.793 339.583 700.899C347.082 693.789 350.963 692.845 361.265 693.831Z" fill="#059BD7"/>
<path d="M272.912 693.833C280.353 697.989 284.445 700.971 289.185 708.092C289.743 711.915 289.743 711.915 289.808 716.259C289.841 717.891 289.874 719.523 289.907 721.205C289.923 723.84 289.923 723.84 289.94 726.529C289.968 729.253 289.968 729.253 289.996 732.032C290.025 735.876 290.043 739.72 290.051 743.564C290.075 749.426 290.175 755.284 290.278 761.146C290.297 764.884 290.312 768.623 290.321 772.361C290.361 774.106 290.401 775.85 290.442 777.648C290.377 786.318 289.834 791.922 284.283 798.796C278.087 804.717 276.678 805.704 268.208 806.505C259.447 805.761 256.588 803.954 250.536 797.72C247.192 792.068 245.95 787.873 245.877 781.329C245.851 779.731 245.825 778.133 245.798 776.487C245.794 774.779 245.789 773.071 245.785 771.311C245.764 768.651 245.764 768.651 245.744 765.938C245.723 762.194 245.714 758.449 245.714 754.705C245.705 748.986 245.631 743.271 245.554 737.553C245.542 733.91 245.534 730.267 245.53 726.624C245.501 724.92 245.472 723.216 245.442 721.46C245.505 713.334 245.817 709.135 250.214 702.096C257.895 694.768 262.368 692.591 272.912 693.833Z" fill="#059BD7"/>
<path d="M99.516 693.903C107.857 698.221 113.206 701.48 116.379 710.116C116.835 716.065 117.07 721.818 117.087 727.769C117.101 729.483 117.115 731.197 117.129 732.963C117.15 736.584 117.16 740.206 117.16 743.827C117.169 749.347 117.245 754.864 117.325 760.384C117.338 763.91 117.346 767.435 117.35 770.96C117.38 772.601 117.411 774.242 117.442 775.932C117.352 786.691 115.308 792.739 107.947 801.311C102.74 805.109 98.9338 805.458 92.4022 806.505C82.9015 805.087 80.6146 802.435 74.769 795.48C70.1058 787.924 70.3465 780.644 70.5089 772.045C70.5018 770.25 70.4947 768.454 70.4874 766.604C70.488 762.828 70.5199 759.052 70.5814 755.277C70.6652 749.515 70.625 743.763 70.5706 738.001C70.5866 734.318 70.6097 730.636 70.6406 726.954C70.6259 725.243 70.6112 723.533 70.596 721.771C70.894 709.732 73.5865 704.307 82.6535 695.93C88.6947 693.025 92.7984 693.282 99.516 693.903Z" fill="#069AD6"/>
<path d="M354.401 417.505C361.282 417.554 364.889 418.73 370.202 423.127C378.672 431.826 377.85 438.802 377.951 450.439C377.976 453.109 377.976 453.109 378.001 455.834C378.03 459.608 378.051 463.382 378.067 467.156C378.102 472.909 378.192 478.659 378.282 484.412C378.303 488.08 378.32 491.748 378.334 495.416C378.369 497.129 378.405 498.842 378.442 500.606C378.401 511.609 376.651 517.914 369.31 526.626C362.23 530.176 354.606 529.901 346.882 528.67C341.264 524.21 337.838 520.755 334.649 514.359C334.067 502.511 334.009 490.661 333.935 478.8C333.902 474.832 333.846 470.864 333.768 466.897C333.656 461.173 333.612 455.453 333.582 449.728C333.536 447.96 333.49 446.192 333.442 444.371C333.474 435.187 333.689 431.717 339.686 424.355C341.388 423.022 343.09 421.689 344.844 420.316C346.882 418.271 346.882 418.271 354.401 417.505Z" fill="#049CD8"/>
<path d="M93.0408 417.505C99.8037 417.554 103.349 418.73 108.571 423.123C116.832 431.752 116.058 438.506 116.116 450.044C116.128 451.783 116.139 453.522 116.151 455.313C116.17 458.997 116.183 462.682 116.191 466.366C116.21 471.989 116.272 477.612 116.336 483.235C116.349 486.814 116.359 490.394 116.367 493.974C116.392 495.651 116.416 497.329 116.442 499.057C116.398 510.698 114.271 517.467 106.316 526.178C99.4939 529.751 93.0431 530.25 85.6516 528.605C80.2591 524.159 76.7237 520.614 73.6284 514.302C73.0558 502.461 72.9996 490.618 72.9269 478.764C72.8937 474.798 72.839 470.833 72.7625 466.868C72.6527 461.148 72.6089 455.43 72.5795 449.709C72.5341 447.942 72.4887 446.176 72.4419 444.355C72.4734 435.177 72.6845 431.708 78.5784 424.351C80.2513 423.019 81.9241 421.687 83.6477 420.314C85.6516 418.271 85.6516 418.271 93.0408 417.505Z" fill="#049BD7"/>
<path d="M189.064 141.451C200.095 148.473 200.095 148.473 202.013 155.924C202.44 161.259 202.493 166.469 202.407 171.821C202.414 173.768 202.42 175.716 202.427 177.722C202.427 181.83 202.397 185.938 202.339 190.046C202.261 196.327 202.298 202.599 202.349 208.879C202.334 212.877 202.313 216.874 202.284 220.872C202.304 223.68 202.304 223.68 202.326 226.546C202.128 235.819 201.876 239.81 196.131 247.295C188.624 253.112 184.665 254.036 175.251 253.275C167.745 249.76 164.517 246.835 161.437 239.043C160.91 234.892 160.91 234.892 160.864 230.442C160.826 227.928 160.826 227.928 160.788 225.363C160.783 223.569 160.779 221.775 160.774 219.927C160.755 217.137 160.755 217.137 160.735 214.291C160.715 210.362 160.705 206.433 160.706 202.504C160.697 196.502 160.626 190.503 160.551 184.501C160.539 180.679 160.532 176.858 160.528 173.036C160.499 171.247 160.471 169.457 160.442 167.613C160.503 159.172 160.746 154.785 165.194 147.482C172.152 140.757 179.792 139.244 189.064 141.451Z" fill="#039DDA"/>
<path d="M187.408 693.801C198.455 700.259 198.455 700.259 201.269 706.071C201.495 708.855 201.605 711.651 201.651 714.445C201.699 717.036 201.699 717.036 201.748 719.679C201.836 727.581 201.917 735.484 201.963 743.387C201.995 747.554 202.049 751.722 202.125 755.888C202.234 761.898 202.277 767.904 202.306 773.914C202.351 775.772 202.396 777.63 202.442 779.544C202.412 788.852 202.255 792.715 196.502 800.245C188.955 806.102 184.988 807.041 175.527 806.274C167.993 802.738 164.758 799.795 161.665 791.96C161.122 787.784 161.122 787.784 161.059 783.309C161.027 781.623 160.995 779.937 160.963 778.2C160.952 776.396 160.941 774.591 160.93 772.732C160.913 770.861 160.895 768.991 160.876 767.064C160.848 763.112 160.83 759.16 160.823 755.208C160.799 749.171 160.702 743.137 160.602 737.101C160.583 733.257 160.569 729.413 160.559 725.57C160.52 723.77 160.482 721.969 160.442 720.114C160.507 710.952 160.742 707.27 166.437 699.867C173.956 693.972 177.933 692.86 187.408 693.801Z" fill="#049CD9"/>
<path d="M189.085 418.456C200.152 425.57 200.152 425.57 202.053 432.935C202.461 438.18 202.496 443.298 202.392 448.559C202.394 450.472 202.396 452.385 202.398 454.357C202.389 458.393 202.35 462.43 202.285 466.465C202.191 472.634 202.203 478.796 202.23 484.965C202.208 488.893 202.18 492.821 202.145 496.749C202.15 499.508 202.15 499.508 202.156 502.322C201.969 510.866 201.656 515.473 197.171 522.854C190.737 529.084 186.112 529.58 177.293 529.497C171.021 528.565 167.682 525.312 163.367 520.717C161.143 516.116 161.106 513.544 161.039 508.439C161.001 505.909 161.001 505.909 160.962 503.329C160.947 501.503 160.933 499.677 160.918 497.796C160.902 495.919 160.886 494.043 160.869 492.109C160.842 488.133 160.821 484.156 160.805 480.179C160.771 474.105 160.684 468.034 160.597 461.961C160.577 458.098 160.56 454.235 160.547 450.372C160.512 448.559 160.478 446.746 160.442 444.877C160.471 436.345 160.679 431.9 165.151 424.514C172.135 417.763 179.79 416.236 189.085 418.456Z" fill="#039EDA"/>
<path d="M274.967 418.059C282.264 421.439 284.887 423.618 289.402 430.339C289.953 434.181 289.953 434.181 290.001 438.545C290.04 441.005 290.04 441.005 290.08 443.514C290.085 445.28 290.09 447.045 290.094 448.864C290.108 450.689 290.122 452.514 290.136 454.394C290.157 458.256 290.166 462.119 290.166 465.981C290.175 471.871 290.25 477.758 290.328 483.647C290.34 487.403 290.348 491.16 290.352 494.916C290.382 496.669 290.411 498.422 290.442 500.228C290.355 511.619 288.634 517.781 281.153 526.537C274.595 529.792 267.579 530.199 260.533 528.584C249.017 521.516 249.017 521.516 246.988 514.014C246.522 508.644 246.446 503.399 246.518 498.01C246.506 496.05 246.494 494.09 246.482 492.07C246.474 487.935 246.496 483.799 246.548 479.663C246.614 473.34 246.549 467.028 246.469 460.705C246.478 456.681 246.493 452.656 246.518 448.632C246.493 446.747 246.468 444.862 246.442 442.92C246.722 430.224 246.722 430.224 250.767 424.796C258.685 417.851 264.641 416.568 274.967 418.059Z" fill="#039EDA"/>
</g>
<defs>
<clipPath id="clip0_16_21231">
<rect width="1024" height="1024" fill="white"/>
</clipPath>
</defs>
</svg>
