<svg width="96" height="96" viewBox="0 0 96 96" fill="none" xmlns="http://www.w3.org/2000/svg">
<g clip-path="url(#clip0_83_15)">
<mask id="mask0_83_15" style="mask-type:luminance" maskUnits="userSpaceOnUse" x="0" y="0" width="96" height="96">
<path d="M96 0H0V96H96V0Z" fill="white"/>
</mask>
<g mask="url(#mask0_83_15)">
<path d="M48 96C74.5097 96 96 74.5097 96 48C96 21.4903 74.5097 0 48 0C21.4903 0 0 21.4903 0 48C0 74.5097 21.4903 96 48 96Z" fill="#0B53BF"/>
<path d="M58.1999 59.4305C56.0999 60.2705 53.8199 60.7505 51.6299 60.7505C47.2928 60.7505 43.2038 58.9034 41.2499 54.4505H50.7899L52.6499 49.9505H40.1396C40.0805 49.3307 40.0499 48.6812 40.0499 48.0005C40.0499 47.3198 40.0805 46.6703 40.1396 46.0505H54.2399L56.0999 41.5505H41.2499C43.2038 37.0976 47.2928 35.2505 51.6299 35.2505C53.8199 35.2505 56.0999 35.7305 58.1999 36.5705L60.1199 32.0105C57.5399 30.6605 54.6299 30.0005 51.7199 30.0005C44.6963 30.0005 37.5965 33.9272 35.0264 41.5505H30.4199V46.0505H34.1036C34.0487 46.6823 34.0199 47.3324 34.0199 48.0005C34.0199 48.6686 34.0484 49.3187 34.1036 49.9505H30.4199V54.4505H35.0264C37.5965 62.0738 44.6963 66.0005 51.7199 66.0005C54.6299 66.0005 57.5399 65.3405 60.1199 63.9905L58.1999 59.4305Z" fill="white" stroke="#0B53BF" stroke-width="0.03" stroke-miterlimit="10"/>
<path d="M18 48.0003C18 34.4103 27.03 22.9503 39.36 19.2303V13.0503C23.64 16.8903 12 31.0803 12 48.0003C12 64.9203 23.64 79.1103 39.36 82.9503V76.7703C27.03 73.0803 18 61.5903 18 48.0003Z" fill="white" stroke="#0B53BF" stroke-width="0.03" stroke-miterlimit="10"/>
<path d="M56.6399 13.0503V19.2303C68.9699 22.9503 77.9999 34.4103 77.9999 48.0003C77.9999 61.5903 68.9699 73.0503 56.6399 76.7703V82.9503C72.3599 79.1103 83.9999 64.9203 83.9999 48.0003C83.9999 31.0803 72.3599 16.8903 56.6399 13.0503Z" fill="white" stroke="#0B53BF" stroke-width="0.03" stroke-miterlimit="10"/>
</g>
</g>
<defs>
<clipPath id="clip0_83_15">
<rect width="96" height="96" fill="white"/>
</clipPath>
</defs>
</svg>
