<svg width="100" height="100" viewBox="0 0 100 100" fill="none" xmlns="http://www.w3.org/2000/svg">
<g clip-path="url(#clip0_83_24)">
<path d="M50 100C77.6142 100 100 77.6142 100 50C100 22.3858 77.6142 0 50 0C22.3858 0 0 22.3858 0 50C0 77.6142 22.3858 100 50 100Z" fill="#002575"/>
<path d="M50.0762 3.45508C54.0995 3.45508 58.6331 4.29386 63.9059 5.98806L64.1576 6.06939V6.06951L64.4595 6.16837C67.5526 7.19006 70.2638 8.31905 72.6627 9.56163C77.7335 11.7732 82.4241 16.043 87.2073 22.6248V22.6248L87.387 22.8738C89.2307 25.4335 90.7415 27.8818 91.9521 30.2591C94.7307 34.9111 95.9875 40.85 96.1119 48.3096L96.1228 48.3055V49.5701C96.1228 52.6713 95.9361 55.5151 95.5491 58.1205C95.2991 64.1468 92.5372 70.3214 87.5155 77.2347C82.7906 83.7393 78.1519 87.995 73.1496 90.2296C70.584 91.5937 67.665 92.8289 64.2718 93.931C58.891 95.6793 54.2774 96.5452 50.1905 96.5452C48.352 96.5452 46.5995 96.3625 44.9164 95.9955C42.0895 95.5914 39.0414 94.8842 35.6526 93.7826L35.4731 93.7238C27.9047 91.245 22.4591 88.1548 18.8123 84.0988C16.737 82.0869 14.6724 79.7073 12.5875 76.8351L12.4773 76.6833C7.83311 70.2604 5.24103 64.58 4.65791 59.1793C4.15299 56.2857 3.88892 53.1132 3.88892 49.5703C3.88892 40.0922 5.58261 32.9575 9.7798 27.7808C10.6688 26.2931 11.6404 24.7697 12.7955 23.1811L12.9092 23.0253C14.8884 20.2984 16.8474 18.0018 18.8178 16.0522C22.4944 11.8917 28.0269 8.74154 35.778 6.22162L35.7782 6.22156L36.0763 6.12539C39.135 5.14667 41.9123 4.48891 44.5098 4.08299C46.2767 3.67319 48.124 3.45508 50.0762 3.45508ZM49.6196 88.2592C46.1873 89.7878 43.0462 90.7746 40.1094 91.2729C41.8026 92.2684 43.5791 92.9681 45.4639 93.3842C46.977 93.596 48.4102 93.733 49.7337 93.733C53.1791 93.733 56.2543 93.0201 59.0765 91.5269C56.1537 90.9259 53.0208 89.8403 49.6196 88.2592ZM82.3808 77.4407C79.6136 78.8072 76.391 79.8643 72.6525 80.6388C70.6639 84.1702 68.5674 87.0526 66.3168 89.35C68.2769 89.1474 70.1644 88.6325 72.0155 87.8117C77.2078 85.0224 80.5389 81.6651 82.3808 77.4407ZM69.1747 81.2615C66.576 81.6542 63.7558 81.939 60.7152 82.1342C57.899 83.9248 55.2471 85.4664 52.7523 86.7433C56.3459 88.2341 59.5343 89.0503 62.4498 89.3089C64.8197 87.3671 67.0406 84.7061 69.1747 81.2615ZM30.6362 81.233C32.639 84.4881 34.719 87.0401 36.9247 88.9681C39.7917 88.8066 42.9384 88.0657 46.4709 86.6742C44.0369 85.3911 41.4571 83.8665 38.7207 82.1023C35.8213 81.9031 33.1265 81.6177 30.6362 81.233ZM17.6153 77.4362C18.4044 79.2033 19.4527 80.8117 20.7777 82.2906C24.7595 86.1057 28.7083 88.1965 32.9441 88.8152C30.8986 86.592 28.9809 83.8648 27.1514 80.5914C23.4973 79.8232 20.3352 78.7809 17.6153 77.4362ZM44.1805 82.3574C46.1001 83.487 47.9248 84.4738 49.6608 85.3226C51.4216 84.4927 53.2773 83.5104 55.2335 82.378C53.5597 82.4299 51.8249 82.4601 50.0029 82.4579C47.9658 82.4579 46.0364 82.4208 44.1805 82.3574ZM50.0036 19.3455C46.5595 19.3455 43.4057 19.4429 40.4356 19.6163C37.8273 21.2776 35.0865 23.1292 32.128 25.2778L32.1281 25.2778C29.313 27.3245 26.8267 29.2588 24.5308 31.138C23.3943 34.0155 22.2738 37.1391 21.1527 40.5844L21.1528 40.5844C20.0783 43.89 19.2054 46.9142 18.4533 49.7806C19.2285 52.768 20.1429 55.9398 21.2709 59.4162L21.3728 59.729C22.4001 62.874 23.4332 65.7587 24.4724 68.4236C26.783 70.33 29.3033 72.2986 32.1524 74.3745L32.436 74.5812L32.4365 74.5817L32.6791 74.7575C35.1099 76.5178 37.3799 78.0572 39.5751 79.487C42.7797 79.6896 46.2275 79.798 50.0001 79.798C53.56 79.798 56.8122 79.6936 59.8659 79.5127C62.3271 77.9276 64.8945 76.1936 67.6627 74.1816L67.6639 74.1828L67.6633 74.1816C70.5537 72.0857 73.1336 70.0806 75.5052 68.1371C76.5628 65.423 77.6068 62.4784 78.649 59.2678C79.7581 55.8487 80.657 52.7266 81.4247 49.7806C80.6804 46.9561 79.8225 43.9851 78.7672 40.7367C77.665 37.3493 76.56 34.2676 75.4458 31.4314C73.1696 29.5753 70.7181 27.6715 67.9744 25.6776L67.6679 25.4552C64.5765 23.2193 61.713 21.2885 59.0098 19.5877C56.1934 19.4391 53.235 19.3455 50.0036 19.3455ZM73.3716 73.2278C72.06 74.2444 70.6878 75.2786 69.2289 76.3391L69.2284 76.3397C67.8962 77.3066 66.6108 78.2079 65.3596 79.0635C67.3408 78.8443 69.197 78.5732 70.9316 78.2461C71.7563 76.7096 72.568 75.0332 73.3716 73.2278ZM26.612 73.5315C27.3584 75.2044 28.1116 76.7655 28.8769 78.2027C30.4918 78.5132 32.2154 78.7724 34.046 78.9864C33.1382 78.358 32.2119 77.705 31.2635 77.0207L30.8746 76.7393L30.8742 76.7387C29.3637 75.6405 27.954 74.5754 26.612 73.5315ZM84.0668 64.0674C82.1941 65.9168 80.076 67.8112 77.7284 69.7581C76.6131 72.5766 75.4806 75.1417 74.3191 77.4744C78.0006 76.5292 81.0531 75.2786 83.5355 73.6805C84.1502 70.9288 84.3437 67.7667 84.0668 64.0674ZM15.8431 64.2467C15.5962 67.8551 15.8001 70.9476 16.4171 73.6394C18.8687 75.2313 21.8807 76.4767 25.5095 77.423C24.4017 75.1827 23.3167 72.729 22.2522 70.0383C19.8556 68.0418 17.716 66.1131 15.8431 64.2467ZM92.423 53.3332C90.9978 56.0272 89.0343 58.737 86.5063 61.5201C86.9304 65.1125 86.9767 68.3015 86.6599 71.1719C89.9053 68.0064 91.8671 63.8083 92.7889 58.2895C92.8762 56.6187 92.7666 54.9725 92.423 53.3332ZM7.54155 53.4046C7.20599 55.1559 7.12637 56.9283 7.30993 58.7472C8.25462 63.9944 10.1687 68.0292 13.2747 71.0971C12.9557 68.2826 12.9833 65.1622 13.3818 61.6514C10.8412 58.8146 8.9165 56.0878 7.54155 53.4046ZM17.1638 55.0933C16.7393 57.104 16.4102 58.9938 16.1715 60.7769C17.4057 62.0937 18.783 63.4482 20.3116 64.8443C19.7882 63.3722 19.2658 61.8426 18.7447 60.2421H18.7446C18.1611 58.4476 17.6408 56.7415 17.1638 55.0933ZM82.7181 55.0812C82.2638 56.6461 81.7712 58.2638 81.2215 59.9601V59.9607L81.1799 60.0897C80.6753 61.6422 80.1696 63.1262 79.6616 64.5572C81.1388 63.2113 82.4829 61.8979 83.6975 60.6097C83.4567 58.8705 83.1319 57.0324 82.7181 55.0812ZM13.92 41.3026C11.5001 44.1984 9.80103 46.9295 8.72032 49.5748C9.72997 52.3143 11.4352 55.146 13.9007 58.1519C14.3319 55.5606 14.9359 52.7725 15.707 49.7776C14.9373 46.7427 14.3378 43.9197 13.92 41.3026ZM85.9487 41.447C85.5269 44.0242 84.9327 46.7995 84.1753 49.7772C84.9373 52.7193 85.5337 55.4607 85.9704 58.0115C88.3768 55.1028 90.1011 52.3157 91.1667 49.578C90.0366 46.9388 88.3146 44.2502 85.9487 41.447ZM86.3693 27.661C86.8254 30.6786 86.8585 34.0577 86.4424 37.9073C88.8711 40.5239 90.798 43.0734 92.2518 45.6036C92.9835 41.2421 92.1439 36.7967 89.766 31.9265C88.8357 30.3331 87.7112 28.9151 86.3693 27.661ZM13.5679 27.7266C12.9085 28.3431 12.3029 28.9971 11.7517 29.6924C8.32266 35.599 7.06319 40.6878 7.72814 45.5051C9.13031 42.9853 11.0136 40.4225 13.4533 37.7564C13.0683 33.9995 13.1116 30.6873 13.5679 27.7266ZM79.6125 34.9613C80.1188 36.3745 80.6222 37.8397 81.1239 39.3652L81.3014 39.9059V39.9066L81.3853 40.1653C81.8636 41.6461 82.2986 43.0668 82.7033 44.4455C83.1136 42.4723 83.4333 40.6139 83.6616 38.8653C82.439 37.5906 81.0902 36.2914 79.6125 34.9613ZM20.3555 34.6857C18.8363 36.0582 17.464 37.3899 16.2296 38.6865C16.453 40.4799 16.7711 42.3869 17.1876 44.4183C17.6252 42.9222 18.0979 41.3765 18.6228 39.7585L18.6229 39.758L18.6231 39.7574C19.1991 37.9903 19.7755 36.303 20.3555 34.6857ZM73.9681 21.5739C75.2324 24.037 76.4595 26.7846 77.6662 29.8057C79.9989 31.7268 82.1034 33.5927 83.9732 35.4152C84.2307 31.4604 83.9601 28.1167 83.1804 25.2591C80.6816 23.7066 77.6359 22.4883 73.9681 21.5739ZM25.847 21.6261C22.2379 22.5411 19.2344 23.7538 16.7722 25.2937C15.9912 28.0939 15.7094 31.3693 15.9344 35.2254C17.7627 33.4272 19.8341 31.5704 22.1504 29.6498H22.117L22.3285 29.4806C23.4783 26.6144 24.6457 23.9897 25.847 21.6261ZM64.4555 19.9736C66.0041 21.0125 67.6034 22.1215 69.2746 23.3292L69.5366 23.5191L69.5372 23.5194L69.7541 23.6774C70.9898 24.5784 72.1622 25.4607 73.2906 26.3296C72.3768 24.3192 71.4521 22.4788 70.5098 20.8002C68.6342 20.4624 66.6165 20.1889 64.4555 19.9736ZM34.9642 20.0369C32.9503 20.253 31.0635 20.5226 29.2994 20.8476C28.4194 22.4289 27.5534 24.1508 26.699 26.0211C27.9223 25.0763 29.2014 24.1133 30.5619 23.1239L30.8008 22.9506C32.2388 21.9093 33.6209 20.9466 34.9642 20.0369ZM32.9041 11.1079C28.6933 11.8035 24.7581 13.9568 20.7878 17.8512C19.8378 18.9313 19.0427 20.0898 18.3838 21.33C21.0409 20.1091 24.0954 19.1545 27.6042 18.4444C29.2844 15.5661 31.0408 13.1256 32.9041 11.1079ZM66.3397 10.5488C68.4122 12.6516 70.3522 15.2574 72.1993 18.3931C75.79 19.1084 78.907 20.0777 81.6119 21.3204C79.6485 17.5805 76.4076 14.5321 71.5337 11.9793C69.8414 11.2486 68.1188 10.7685 66.3397 10.5488ZM36.9844 10.8716C34.9237 12.6317 32.9733 14.9401 31.0947 17.8485C33.707 17.4627 36.5424 17.1826 39.5993 16.9938C41.995 15.4837 44.2622 14.173 46.4181 13.0486C42.9295 11.7066 39.8165 10.9983 36.9844 10.8716ZM62.3534 10.5388C59.4835 10.7647 56.3407 11.5476 52.8082 12.9819C55.0255 14.1042 57.3642 15.4319 59.8362 16.9657C63.0332 17.1468 65.9955 17.428 68.7158 17.8242C66.6941 14.7244 64.5897 12.3208 62.3534 10.5388ZM49.638 14.3894C48.1965 15.0838 46.6991 15.8685 45.1354 16.7535C46.6977 16.7084 48.3127 16.6817 50.0039 16.6817C51.4539 16.6817 52.8482 16.7007 54.2033 16.7337C52.6138 15.8479 51.0921 15.0644 49.638 14.3894ZM49.8517 6.26711C48.3802 6.26711 46.7795 6.42972 45.079 6.68595C43.3994 7.08178 41.8053 7.70518 40.2801 8.56534C43.1602 9.042 46.2398 9.99371 49.5926 11.4614C52.9428 9.92613 56.0241 8.88914 58.9036 8.31591C56.1606 6.92767 53.1795 6.26711 49.8517 6.26711Z" fill="url(#paint0_linear_83_24)"/>
<path d="M51.0443 19.8059C52.7136 19.8059 54.4117 20.036 56.1385 20.4962C57.8653 20.8988 59.4481 21.4741 60.8876 22.2218C62.3841 22.9696 63.5639 23.8037 64.4275 24.724V36.631C62.988 35.2505 61.2614 33.985 59.2466 32.8346C57.2323 31.6842 54.9009 31.1089 52.2531 31.1089C49.0872 31.1089 46.3243 31.943 43.9642 33.6111C41.6618 35.2217 39.8485 37.4651 38.5246 40.3412C38.3597 40.7083 38.2057 41.0822 38.0622 41.4629H56.1385V48.3654H36.6698C36.64 48.9024 36.6251 49.4489 36.6251 50.0048C36.6251 50.7684 36.6542 51.5162 36.7123 52.2482H56.1385V59.1507H38.3052C38.376 59.3247 38.4492 59.4971 38.5246 59.6684C39.8485 62.4868 41.6618 64.7306 43.9642 66.3984C46.3243 68.0091 49.0872 68.8145 52.2531 68.8145C54.7858 68.8145 57.0019 68.4115 58.9013 67.6067C60.8008 66.7437 62.4989 65.6798 63.9954 64.4138V75.8898C62.2688 77.2699 60.254 78.3345 57.9515 79.0822C55.7068 79.8299 53.4044 80.2037 51.0443 80.2037C47.3603 80.2037 43.8779 79.4846 40.5969 78.0468C37.3734 76.5513 34.5529 74.4806 32.1353 71.8345C29.7177 69.1307 27.8182 65.9383 26.4367 62.2568C26.0635 61.2465 25.7408 60.2112 25.4683 59.1507H18.4932V52.2482H24.4252C24.3847 51.5105 24.3645 50.7627 24.3645 50.0048C24.3645 49.4523 24.375 48.9058 24.396 48.3654H18.4932V41.4629H25.3103C25.6131 40.1838 25.9885 38.947 26.4367 37.7527C27.8182 34.0713 29.7177 30.9076 32.1353 28.2616C34.5529 25.5581 37.3734 23.4873 40.5969 22.0493C43.8779 20.5537 47.3603 19.8059 51.0443 19.8059Z" fill="white"/>
<path d="M56.1384 59.1508V52.2483H36.7122C36.6541 51.5164 36.625 50.7686 36.625 50.005C36.625 49.449 36.6399 48.9026 36.6697 48.3656H56.1384V41.463H38.0621C38.2056 41.0823 38.3596 40.7084 38.5245 40.3413C39.8484 37.4652 41.6617 35.2219 43.9641 33.6112C46.3242 31.9432 49.0871 31.1091 52.253 31.1091C54.9008 31.1091 57.2322 31.6843 59.2465 32.8348C61.2613 33.9852 62.9879 35.2507 64.4274 36.6312V24.7241C63.5638 23.8038 62.384 22.9698 60.8875 22.222C59.448 21.4742 57.8652 20.899 56.1384 20.4964C54.4116 20.0362 52.7135 19.8061 51.0442 19.8061C47.3602 19.8061 43.8778 20.5538 40.5968 22.0494C37.3733 23.4874 34.5528 25.5582 32.1352 28.2618C29.7176 30.9077 27.8181 34.0715 26.4366 37.7529C25.9884 38.9471 25.613 40.1839 25.3102 41.463H18.4931V48.3656H24.3959C24.3749 48.9059 24.3644 49.4524 24.3644 50.005C24.3644 50.7628 24.3846 51.5107 24.4251 52.2483H18.4931V59.1508H25.4682C25.7407 60.2113 26.0634 61.2467 26.4366 62.257C27.8181 65.9385 29.7176 69.1308 32.1352 71.8346C34.5528 74.4807 37.3733 76.5515 40.5968 78.0469C43.8778 79.4847 47.3602 80.2039 51.0442 80.2039C53.4042 80.2039 55.7067 79.83 57.9514 79.0823C60.2539 78.3346 62.2687 77.2701 63.9953 75.89V64.4139C62.4988 65.6799 60.8007 66.7438 58.9012 67.6069C57.0018 68.4116 54.7857 68.8146 52.253 68.8146V66.5315C54.534 66.5315 56.4269 66.1708 57.9828 65.5161C59.6928 64.7364 61.202 63.7866 62.5216 62.6708L66.2785 59.4938V76.9876L65.4212 77.6731C63.4645 79.2376 61.2054 80.4236 58.6734 81.2484L58.557 81.2866C56.1553 82.0737 53.689 82.4744 51.1664 82.487H51.0442C47.054 82.487 43.2585 81.7062 39.6803 80.1377L39.658 80.128L39.6359 80.1177C36.1357 78.4938 33.0694 76.2416 30.4496 73.3745L30.4414 73.3654L30.4333 73.3563C27.8528 70.4704 25.8354 67.0903 24.3685 63.2427L24.2991 63.0595L24.2971 63.0538L24.295 63.0486C24.0984 62.5161 23.9152 61.9784 23.7449 61.4339H16.21V39.1799H23.5545C23.7771 38.4235 24.0252 37.6804 24.2991 36.9507L24.3685 36.767C25.8362 32.9184 27.8566 29.5608 30.4458 26.7259C33.0651 23.8006 36.1367 21.542 39.6498 19.9719L39.818 19.896C43.3537 18.3126 47.1034 17.5229 51.0442 17.5229L51.2206 17.5237C53.0326 17.5393 54.8579 17.7953 56.6919 18.2812C58.5678 18.7214 60.315 19.3536 61.9234 20.1877C63.581 21.0174 64.9982 21.996 66.0924 23.162L66.7105 23.8208V41.9853L62.8469 38.2788C61.6027 37.0855 60.0901 35.962 58.2899 34.9182L58.1146 34.8174C56.5165 33.9047 54.621 33.4079 52.3609 33.3926L52.253 33.3922C49.5118 33.3922 47.2196 34.1061 45.2819 35.4756L45.2774 35.4789L45.2728 35.4821C43.9182 36.4296 42.7423 37.6518 41.7547 39.1799H58.4217V61.4339H42.1961C43.085 62.6554 44.1133 63.6833 45.2778 64.5309C47.2124 65.8432 49.5072 66.5315 52.253 66.5315V68.8146C49.0871 68.8146 46.3242 68.0093 43.9641 66.3985C41.6617 64.7307 39.8484 62.487 38.5245 59.6685C38.4491 59.4973 38.3759 59.3249 38.305 59.1508H56.1384Z" fill="url(#paint1_linear_83_24)"/>
</g>
<defs>
<linearGradient id="paint0_linear_83_24" x1="22.6967" y1="126.944" x2="119.414" y2="95.5851" gradientUnits="userSpaceOnUse">
<stop stop-color="#03A6A6"/>
<stop offset="1" stop-color="#307FE2"/>
</linearGradient>
<linearGradient id="paint1_linear_83_24" x1="26.5077" y1="103.701" x2="81.4725" y2="89.7187" gradientUnits="userSpaceOnUse">
<stop stop-color="#03A6A6"/>
<stop offset="1" stop-color="#307FE2"/>
</linearGradient>
<clipPath id="clip0_83_24">
<rect width="100" height="100" fill="white"/>
</clipPath>
</defs>
</svg>
