<svg width="100" height="100" viewBox="0 0 100 100" fill="none" xmlns="http://www.w3.org/2000/svg">
<g clip-path="url(#clip0_84_29)">
<path fill-rule="evenodd" clip-rule="evenodd" d="M50.076 100C22.42 100 0 77.58 0 49.924C0 22.268 22.42 -0.147949 50.076 -0.147949C53.812 -0.147949 57.4 0.300051 60.84 1.04805C53.516 3.58805 47.088 7.47605 41.708 12.5561C36.328 17.6361 31.988 23.7681 29.448 30.7921H18.684L13.452 42.752H26.456C26.308 44.396 26.156 46.04 26.156 47.684C26.156 50.376 26.456 53.064 26.904 55.608H17.188L12.704 67.568H30.64C33.332 73.248 37.068 78.3321 41.7 82.6641C49.024 89.5401 58.44 94.472 69.056 96.268C63.228 98.656 56.8 100 50.076 100ZM75.936 7.02405C90.584 15.3961 100 33.332 100 50.076C100 64.724 93.424 78.476 82.512 88.192C70.104 90.732 58.744 84.756 49.776 75.784C47.984 73.992 46.488 71 44.992 68.608C44.844 68.308 44.544 68.012 44.396 67.712H44.544H73.544L77.88 56.204H39.164C38.716 54.26 38.416 52.168 38.268 50.076C38.268 49.328 38.12 48.58 38.12 47.832V47.684V47.536C38.12 45.744 38.268 43.948 38.42 42.304H83.264L87.896 30.944H42.456C44.4 27.208 46.792 22.4241 49.78 19.4361C56.956 12.2601 65.776 6.58005 75.788 7.02805H75.936V7.02405Z" fill="url(#paint0_linear_84_29)"/>
</g>
<defs>
<linearGradient id="paint0_linear_84_29" x1="16.5344" y1="87.1082" x2="83.4997" y2="12.8186" gradientUnits="userSpaceOnUse">
<stop stop-color="#15BCFF"/>
<stop offset="0.3608" stop-color="#219BF6"/>
<stop offset="0.502" stop-color="#2D79ED"/>
<stop offset="0.7216" stop-color="#725DED"/>
<stop offset="1" stop-color="#B741EE"/>
</linearGradient>
<clipPath id="clip0_84_29">
<rect width="100" height="100" fill="white"/>
</clipPath>
</defs>
</svg>
