<svg width="1024" height="1024" viewBox="0 0 1024 1024" fill="none" xmlns="http://www.w3.org/2000/svg">
<path d="M497.786 29.4251C764.43 21.6055 986.86 231.548 994.45 498.196C1002.03 764.845 791.9 987.095 525.245 994.45C258.919 1001.8 37.001 791.975 29.4228 525.655C21.8446 259.336 231.472 37.2351 497.786 29.4251Z" fill="#B9E2E9"/>
<path d="M483.088 301.439L483.087 275.959C483.08 269.922 482.907 263.876 483.231 257.706C484.929 225.367 528.4 220.14 537.97 250.81C539.8 256.672 539.055 268.518 539.035 275.065C538.99 283.873 539.015 292.682 539.1 301.49L573.895 301.504L573.875 271.862C573.87 266.058 573.53 256.816 574.715 251.538C575.75 247.012 577.97 242.84 581.135 239.445C586.24 233.854 593.415 230.602 600.98 230.45C608.73 230.285 615.71 232.952 621.32 238.39C631.815 248.567 629.925 262.574 629.91 276.013L629.92 301.494L659.995 301.495C660.115 284.242 656.08 251.377 667.925 238.976C672.975 233.596 680.015 230.534 687.395 230.512C694.995 230.415 702.075 233.066 707.53 238.45C710.92 241.752 713.36 245.904 714.59 250.473C716.615 257.916 715.78 291.499 715.815 301.514C730.12 301.409 740.975 301.164 753.79 308.666C763.775 314.512 771.84 325.063 774.79 336.256C783.62 336.072 821.305 335.487 828 337.163C832.175 338.223 836.03 340.297 839.21 343.202C850.66 353.552 851.16 372.298 840.485 383.365C836.975 387.015 832.53 389.63 827.635 390.925C821.865 392.403 811.34 391.934 805.12 391.901C795.96 391.824 786.795 391.818 777.635 391.884L777.625 403.981L804.245 403.968C810.685 403.953 821.37 403.437 827.255 404.927C831.81 406.037 836.005 408.309 839.425 411.521C844.83 416.542 847.98 423.534 848.16 430.911C848.425 438.542 845.56 445.951 840.23 451.419C836.87 454.884 832.62 457.356 827.95 458.566C821.255 460.304 810.3 459.747 803.105 459.7C794.605 459.632 786.1 459.647 777.6 459.747C777.48 467.426 777.62 475.451 777.64 483.157L803.555 483.053C816.35 482.995 829.59 481.256 839.755 490.816C850.835 501.24 851.125 520.085 840.265 530.82C836.59 534.415 832.01 536.95 827.01 538.16C821.27 539.58 811.395 539.11 805.22 539.09L777.55 539.02L777.57 562.625L803.04 562.52C816.07 562.47 829.795 560.58 840.025 570.56C850.81 581.085 850.99 599.895 840.07 610.475C836.56 613.865 832.215 616.275 827.475 617.46C821.405 619.01 810.61 618.555 803.955 618.54L777.555 618.545C777.48 628.27 777.5 638 777.615 647.725C786.915 647.81 796.215 647.8 805.515 647.7C811.88 647.675 821.715 647.255 827.715 648.73C832.1 649.835 836.14 652.01 839.475 655.065C850.6 665.17 851.11 683.995 840.665 694.705C837.125 698.32 832.67 700.895 827.775 702.155C822.03 703.62 811.225 703.1 804.935 703.09L773.315 703.07C770.205 709 767.18 714.215 762.28 718.84C747.13 733.145 734.395 732.59 715.465 732.46C715.52 744.615 717.245 775.78 713.32 785.515C710.245 793.14 704.775 798.11 697.38 801.285C694.475 802.29 691.425 802.845 688.35 802.925C681.035 803.1 673.71 800.46 668.455 795.305C664.87 791.77 662.285 787.35 660.965 782.49C658.89 774.895 659.87 742.415 659.94 732.65C650.17 732.405 639.56 732.555 629.73 732.52C629.88 741.33 630.355 775.32 628.615 781.99C627.35 786.915 624.8 791.42 621.225 795.035C616.2 800.075 609.38 802.915 602.26 802.915C594.305 802.91 587.655 800.435 582.03 794.74C579.045 791.71 576.645 788 575.425 783.905C572.59 774.365 573.965 743.825 573.965 732.62L539.02 732.52L539.07 757.765C539.095 770.975 540.69 784.685 530.65 794.955C525.59 800.13 518.835 802.915 511.625 802.99C503.945 803.065 497.547 800.855 492.012 795.41C488.729 792.18 486.03 788.07 484.674 783.655C481.802 774.295 483.297 744.3 483.269 732.54L448.435 732.475C448.428 746.895 448.783 761.68 448.221 776.025C447.519 808.335 400.275 812.835 393.678 782.025C391.041 769.71 392.469 745.755 392.492 732.59C382.491 732.495 372.488 732.465 362.486 732.505C362.304 743.27 363.407 774.435 361.113 782.75C359.854 787.315 357.431 791.48 354.08 794.83C348.672 800.28 341.684 803.02 334.061 802.965C326.712 802.98 319.682 799.96 314.628 794.63C311.316 791.175 308.947 786.93 307.747 782.3C305.737 774.58 306.504 742.375 306.524 732.55C294.579 732.685 285.176 733.225 274.124 727.885C262.343 722.195 256.301 714.37 250.507 703.07L219.519 703.11C212.551 703.125 201.795 703.595 195.366 701.985C191.07 700.915 187.131 698.735 183.938 695.67C178.444 690.43 175.65 683.285 175.556 675.77C175.426 668.27 178.371 661.045 183.708 655.775C189.497 649.96 196.652 647.63 204.688 647.615C218.555 647.58 232.423 647.625 246.29 647.665C246.228 637.995 246.386 628.185 246.456 618.505C237.021 618.42 203.017 619.215 196.091 617.525C191.578 616.385 187.436 614.095 184.066 610.88C178.581 605.675 175.466 598.455 175.443 590.895C175.289 583.35 178.224 576.07 183.569 570.745C187.03 567.335 191.342 564.92 196.055 563.74C203.925 561.705 236.277 562.54 246.276 562.575L246.246 539.03C237.272 538.975 202.296 539.76 195.823 538.055C191.308 536.875 187.181 534.535 183.851 531.265C172.666 520.445 172.543 501.805 183.817 490.944C187.424 487.49 191.887 485.062 196.746 483.91C202.543 482.507 212.903 482.939 219.206 482.969L246.19 483.033C246.098 475.436 246.301 467.413 246.371 459.784C234.989 459.588 223.572 459.698 212.186 459.708C201.664 459.717 192.497 460.107 184.215 452.247C178.742 447.021 175.594 439.818 175.477 432.252C175.278 424.784 178.125 417.557 183.365 412.233C186.649 408.928 190.527 406.535 195.022 405.268C204.37 402.632 234.34 403.98 246.045 403.992L246.173 391.882C237.525 391.805 228.824 392.061 220.112 391.942C206.888 391.788 193.603 393.833 183.336 383.534C172.87 373.034 172.855 354.494 183.407 344.128C186.9 340.701 191.247 338.272 195.997 337.093C202.115 335.531 212.871 335.972 219.504 335.976L248.699 336.02C258.246 310.161 275.849 301.423 302.235 301.484L302.191 271.61C302.188 266.595 301.905 257.084 302.841 252.406C303.592 248.475 305.21 244.761 307.577 241.534C312.459 234.861 318.387 231.881 326.312 230.633C334.847 229.973 342.903 231.965 349.137 238.196C352.823 241.935 355.437 246.596 356.708 251.69C358.463 258.728 357.619 292.048 357.554 301.497L392.086 301.477L392.042 273.802C392.039 267.18 391.616 257.657 393.139 251.506C394.235 246.899 396.503 242.654 399.722 239.182C404.807 233.628 411.981 230.452 419.51 230.421C427.19 230.265 434.601 233.249 440.029 238.683C443.428 241.999 445.907 246.14 447.225 250.702C449.267 257.825 448.459 291.564 448.439 301.484L483.088 301.439Z" fill="#365164"/>
<path d="M645.45 316.889C662.25 316.129 680.615 316.767 697.585 316.702C703.955 316.677 720.345 316.314 726.165 316.891C742.475 316.945 755.04 324.661 760.15 340.806C762.14 347.094 762.09 352.864 762.01 359.396L761.935 363.731L761.97 410.065L761.975 424.5L762 439.561L761.985 453.854L762 503.955L762.025 518.345L761.96 545.18L762.02 559.625L761.965 586.015L762.015 600.11L762.03 615.115L762.005 629.465L761.99 667.145C762.095 681.845 763.74 695.44 752.43 706.95C743.23 716.315 733.005 717.31 720.665 717.295L682.565 717.135C677.945 717.21 672.18 717.475 667.65 717.335C658.095 716.775 645.8 717.08 636.03 717.165C631.215 717.27 626.28 717.24 621.455 717.27C608.5 716.665 591.82 717.11 578.575 717.075L563.905 717.21L519.165 717.07L504.325 717.1L469.023 717.075L454.522 717.07L442.034 717.035L427.953 717.055L401.447 717.095L386.494 717.13C376.65 716.97 366.473 717.11 356.605 717.12L342.484 717.18C328.682 717.025 314.721 717.41 300.908 717.405C289.402 717.4 279.585 715.74 271.221 707.055C260.33 695.745 261.843 683.21 261.986 668.805C261.75 656.335 261.94 643.25 261.93 630.735L261.886 616.515L261.942 586.59L261.929 571.665L261.949 529.175L261.941 497.013C275.126 489.966 284.573 492.696 292.581 504.96C293.267 504.745 292.929 504.795 293.724 504.8L429.065 504.585L429.084 476.998L429.056 462.631C428.746 436.397 435.571 430.914 461.505 431.05H476.066C485.412 431.057 495.141 430.922 504.455 431.101L504.505 338.698L504.605 336.789C504.11 333.848 504.4 321.015 504.265 316.871L519.16 316.782L555.635 316.822L569.7 316.767L573.44 316.883C578.24 316.438 586.02 316.66 590.93 316.664L621.89 316.693L636.19 316.776C638.865 316.805 642.89 316.717 645.45 316.889Z" fill="#FBCC5C"/>
<path d="M261.941 497.013C275.126 489.966 284.573 492.696 292.581 504.96C293.267 504.745 292.929 504.795 293.724 504.8L429.065 504.585L429.082 518.96L429.088 546.03L429.072 560.36C428.966 575.33 429.266 591.25 448.676 593.195C454.223 593.215 459.77 593.275 465.316 593.375L466.122 593.44C470.931 593.26 475.745 593.23 480.556 593.345C488.466 593.42 496.377 593.43 504.285 593.385C504.86 606.395 504.525 621 504.515 634.155L504.445 693.06C504.43 700.5 504.68 709.815 504.325 717.1L469.023 717.075L454.522 717.07L442.034 717.035L427.953 717.055L401.447 717.095L386.494 717.13C376.65 716.97 366.473 717.11 356.605 717.12L342.484 717.18C328.682 717.025 314.721 717.41 300.908 717.405C289.402 717.4 279.585 715.74 271.221 707.055C260.33 695.745 261.843 683.21 261.986 668.805C261.75 656.335 261.94 643.25 261.93 630.735L261.886 616.515L261.942 586.59L261.929 571.665L261.949 529.175L261.941 497.013Z" fill="#FBCC5C"/>
<path d="M261.941 497.013C275.126 489.966 284.573 492.696 292.581 504.96C293.267 504.745 292.929 504.795 293.724 504.8L429.065 504.585L429.082 518.96L429.088 546.03L429.072 560.36C407.723 561.09 385.17 560.32 363.63 560.65C358.222 565.945 341.915 583.26 337.029 586.515L261.942 586.59L261.929 571.665L261.949 529.175L261.941 497.013Z" fill="#FBCC5C"/>
<path d="M358.404 545.88C381.012 546.635 406.19 545.92 429.088 546.03L429.072 560.36C407.723 561.09 385.17 560.32 363.63 560.65C358.222 565.945 341.915 583.26 337.029 586.515L261.942 586.59L261.929 571.665C264.538 571.955 267.453 571.945 270.09 571.975C290.565 572.19 311.121 571.66 331.587 572.125C340.476 564.38 349.465 554.15 358.404 545.88Z" fill="#B9E2E9"/>
<path d="M429.065 504.585L429.082 518.96L293.186 519.12C294.607 513.415 293.985 510.525 292.581 504.96C293.267 504.745 292.929 504.795 293.724 504.8L429.065 504.585Z" fill="#B9E2E9"/>
<path d="M261.941 497.013C275.127 489.966 284.574 492.696 292.582 504.96C293.986 510.525 294.607 513.415 293.187 519.12C290.421 524.935 287.234 529.145 280.95 531.505C275.845 533.47 270.158 533.25 265.217 530.91C264.096 530.39 263.006 529.81 261.95 529.175L261.941 497.013Z" fill="#EE8A47"/>
<path d="M272.099 506.905C274.313 506.235 276.716 506.82 278.373 508.435C280.03 510.05 280.68 512.435 280.068 514.665C279.456 516.895 277.681 518.62 275.432 519.16C272.091 519.965 268.714 517.97 267.812 514.655C266.91 511.335 268.81 507.905 272.099 506.905Z" fill="#FBCC5C"/>
<path d="M261.93 630.735L342.513 630.775C342.519 651.415 342.223 672.885 342.519 693.475L342.484 717.18C328.682 717.025 314.721 717.41 300.908 717.405C289.402 717.4 279.585 715.74 271.221 707.055C260.33 695.745 261.843 683.21 261.986 668.805C261.75 656.335 261.94 643.25 261.93 630.735Z" fill="#FBCC5C"/>
<path d="M261.986 668.805C264.355 672.095 266.253 675.585 268.752 678.76C275.501 687.33 286.91 692.215 297.688 692.955C312.448 693.975 327.675 693.19 342.519 693.475L342.484 717.18C328.682 717.025 314.721 717.41 300.908 717.405C289.402 717.4 279.585 715.74 271.221 707.055C260.33 695.745 261.843 683.21 261.986 668.805Z" fill="#DBB04D"/>
<path d="M466.122 593.44C470.931 593.26 475.745 593.23 480.556 593.345C488.466 593.42 496.377 593.43 504.285 593.385C504.86 606.395 504.525 621 504.515 634.155L504.445 693.06C504.43 700.5 504.68 709.815 504.325 717.1L469.023 717.075L454.522 717.07L454.498 693.45L454.546 640.73C457.352 637.4 462.782 632.815 466.153 629.54C466.25 617.505 466.239 605.475 466.122 593.44Z" fill="#FBCC5C"/>
<path d="M466.122 593.44C470.931 593.26 475.745 593.23 480.556 593.345C480.578 607.27 480.814 621.955 480.433 635.82C476.71 639.57 472.322 642.745 469.059 646.1L468.985 693.37L469.023 717.075L454.522 717.07L454.498 693.45L454.546 640.73C457.352 637.4 462.782 632.815 466.153 629.54C466.25 617.505 466.239 605.475 466.122 593.44Z" fill="#B9E2E9"/>
<path d="M468.985 693.37C477.556 693.38 496.491 693.82 504.445 693.06C504.43 700.5 504.68 709.815 504.325 717.1L469.023 717.075L468.985 693.37Z" fill="#DBB04D"/>
<path d="M448.677 593.195C454.224 593.215 459.771 593.275 465.317 593.375L466.122 593.44C466.24 605.475 466.25 617.505 466.154 629.54C462.782 632.815 457.353 637.4 454.546 640.73L454.499 693.45L454.522 717.07L442.034 717.035L427.953 717.055C428.227 709.68 428.013 700.955 428.022 693.475L428.033 639.71C430.806 635.745 445.992 621.915 450.668 617.325C450.629 612.975 451.35 596.73 450.194 593.815L448.677 593.195Z" fill="#EE8A47"/>
<path d="M465.316 593.375L466.122 593.44C466.239 605.475 466.25 617.505 466.153 629.54C462.782 632.815 457.352 637.4 454.546 640.73L454.498 693.45C450.377 693.37 446.181 693.38 442.052 693.35C441.861 677.595 441.99 661.6 441.984 645.825C448.107 638.995 457.781 630.705 464.757 623.435C465.26 614.155 463.758 602.705 465.316 593.375Z" fill="#FBCC5C"/>
<path d="M442.053 693.35C446.181 693.38 450.378 693.37 454.499 693.45L454.522 717.07L442.034 717.035C441.677 710.07 442.012 700.51 442.053 693.35Z" fill="#DBB04D"/>
<path d="M261.886 616.515C289.38 616.88 316.934 616.41 344.435 616.6C347.259 616.62 349.756 616.6 352.588 616.92C353.929 618.165 355.285 619.35 356.441 620.77C356.961 644.69 356.245 668.955 356.63 692.925C356.531 700.99 356.522 709.055 356.605 717.12L342.484 717.18L342.519 693.475C342.223 672.885 342.519 651.415 342.513 630.775L261.93 630.735L261.886 616.515Z" fill="#EE8A47"/>
<path d="M386.932 659.085C377.501 656.33 372.089 645 374.215 635.675C375.457 630.365 378.784 625.78 383.445 622.95C388.357 619.98 394.277 619.165 399.807 620.705C417.6 625.775 419.211 649.92 401.382 658.89C395.285 660.835 393.033 660.705 386.932 659.085Z" fill="#EE8A47"/>
<path d="M391.927 633.81C394.158 633.06 396.619 633.58 398.359 635.165C400.099 636.75 400.846 639.15 400.312 641.44C399.777 643.73 398.045 645.555 395.784 646.205C392.39 647.18 388.838 645.265 387.789 641.895C386.739 638.525 388.578 634.93 391.927 633.81Z" fill="#FBCC5C"/>
<path d="M401.382 658.89C401.783 669.925 401.452 682.26 401.386 693.39L401.447 717.095L386.494 717.13C386.676 709.205 386.566 700.94 386.569 692.985C386.617 687.01 386.044 663.38 386.932 659.085C393.033 660.705 395.285 660.835 401.382 658.89Z" fill="#B9E2E9"/>
<path d="M356.63 692.925C363.017 693.66 379.884 693.33 386.569 692.985C386.566 700.94 386.676 709.205 386.494 717.13C376.65 716.97 366.473 717.11 356.605 717.12C356.522 709.055 356.531 700.99 356.63 692.925Z" fill="#DBB04D"/>
<path d="M401.387 693.39L428.022 693.475C428.013 700.955 428.227 709.68 427.953 717.055L401.448 717.095L401.387 693.39Z" fill="#DBB04D"/>
<path d="M645.45 316.889C662.25 316.129 680.615 316.767 697.585 316.702C703.955 316.677 720.345 316.314 726.165 316.891C742.475 316.945 755.04 324.661 760.15 340.806C762.14 347.094 762.09 352.864 762.01 359.396L761.935 363.731L761.97 410.065L761.975 424.5L762 439.561L761.985 453.854L762 503.955C757.45 503.385 749.41 503.67 744.59 503.7L712.685 503.86L594.58 503.91L594.55 477.346C594.51 472.472 594.59 467.436 594.61 462.55C594.76 447.919 593.435 433.947 575.49 431.302C570.565 431.152 565.51 431.146 560.575 431.082L546.045 431.052L519.455 431.06L504.455 431.101L504.505 338.698L504.605 336.789C504.11 333.848 504.4 321.015 504.265 316.871L519.16 316.782L555.635 316.822L569.7 316.767L573.44 316.883C578.24 316.438 586.02 316.66 590.93 316.664L621.89 316.693L636.19 316.776C638.865 316.805 642.89 316.717 645.45 316.889Z" fill="#FBCC5C"/>
<path d="M645.45 316.889C662.25 316.129 680.615 316.767 697.585 316.702C703.955 316.677 720.345 316.314 726.165 316.891C742.475 316.945 755.04 324.661 760.15 340.806C762.14 347.094 762.09 352.864 762.01 359.396L761.935 363.731L761.97 410.065C735.35 410.183 708.725 410.116 682.105 409.865L682.205 337.019L667.94 336.942L668.015 317.003C661.235 317.051 652.025 317.363 645.45 316.889Z" fill="#FBCC5C"/>
<path d="M645.45 316.889C662.25 316.129 680.615 316.767 697.585 316.702C703.955 316.677 720.345 316.314 726.165 316.891C742.475 316.945 755.04 324.661 760.15 340.806C762.14 347.094 762.09 352.864 762.01 359.396L761.935 363.731C760.155 361.968 756.725 353.795 752.245 349.528C738.26 336.213 724.95 336.893 707.225 336.957L682.205 337.019L667.94 336.942L668.015 317.003C661.235 317.051 652.025 317.363 645.45 316.889Z" fill="#FDE29F"/>
<path d="M645.45 316.889C662.25 316.129 680.615 316.767 697.585 316.702C703.955 316.677 720.345 316.314 726.165 316.891C713.055 317.633 695.55 317.123 682.085 317.13C682.385 323.873 682.285 330.27 682.205 337.019L667.94 336.942L668.015 317.003C661.235 317.051 652.025 317.363 645.45 316.889Z" fill="#F7AF84"/>
<path d="M519.16 316.781L555.635 316.822L569.7 316.767C570.1 323.347 569.985 330.178 569.985 336.785C570.015 350.106 570.78 376.437 569.445 388.738C566.345 391.898 563.365 394.631 560.105 397.603C560.31 403.084 560.47 408.568 560.575 414.052C560.52 419.729 560.52 425.406 560.575 431.082L546.045 431.052L519.455 431.06L504.455 431.1L504.505 338.698L504.605 336.789C504.11 333.848 504.4 321.015 504.265 316.871L519.16 316.781Z" fill="#FBCC5C"/>
<path d="M555.39 337.302C559.425 336.906 565.775 336.914 569.985 336.785C570.015 350.106 570.78 376.437 569.445 388.738C566.345 391.898 563.365 394.631 560.105 397.603C560.31 403.084 560.47 408.568 560.575 414.052C560.52 419.729 560.52 425.406 560.575 431.082L546.045 431.052L546.05 391.751C549.285 387.99 555.045 385.116 555.385 381.525C556.06 370.693 555.65 348.32 555.39 337.302Z" fill="#B9E2E9"/>
<path d="M504.605 336.789C509.785 336.717 514.065 336.845 519.21 337.085C518.835 358.255 519.255 379.83 519.1 401.04C519.07 404.966 518.91 427.347 519.415 430.046L519.455 431.06L504.455 431.1L504.505 338.698L504.605 336.789Z" fill="#B9E2E9"/>
<path d="M519.16 316.781L555.635 316.822L569.7 316.767C570.1 323.347 569.985 330.178 569.985 336.785C565.775 336.914 559.425 336.906 555.39 337.302C555.65 348.32 556.06 370.693 555.385 381.525C554.51 367.336 555.605 351.463 555 336.932C543.185 337.058 531.37 337.059 519.56 336.933L519.53 399.211C519.54 408.23 519.97 421.561 519.415 430.046C518.91 427.347 519.07 404.966 519.1 401.04C519.255 379.83 518.835 358.255 519.21 337.085C514.065 336.845 509.785 336.717 504.605 336.789C504.11 333.848 504.4 321.015 504.265 316.871L519.16 316.781Z" fill="#FDE29F"/>
<path d="M504.265 316.871L519.16 316.781C519.19 323.093 519.495 330.933 519.21 337.085C514.065 336.845 509.785 336.717 504.605 336.789C504.11 333.848 504.4 321.015 504.265 316.871Z" fill="#C3E5EF"/>
<path d="M555.635 316.822L569.7 316.767C570.1 323.347 569.985 330.178 569.985 336.785C565.775 336.914 559.425 336.906 555.39 337.302C555.19 330.724 555.485 323.457 555.635 316.822Z" fill="#C3E5EF"/>
<path d="M686.31 454.052C711.085 453.406 736.995 454.265 761.985 453.853L762 503.955C757.45 503.385 749.41 503.67 744.59 503.7L712.685 503.86L594.58 503.91L594.55 477.346C615.11 477.228 643.385 478.353 663.27 476.965C669.46 470.808 680.075 459.12 686.31 454.052Z" fill="#FBCC5C"/>
<path d="M680.335 439.533C706.43 439.459 736.13 438.81 762 439.561L761.985 453.853C736.995 454.265 711.085 453.406 686.31 454.052C680.075 459.12 669.46 470.808 663.27 476.965C643.385 478.352 615.11 477.228 594.55 477.346C594.51 472.472 594.59 467.436 594.61 462.549L656.975 462.67C665.22 455.366 672.24 447.107 680.335 439.533Z" fill="#B9E2E9"/>
<path d="M667.94 336.942L682.205 337.019L682.105 409.865C708.725 410.116 735.35 410.183 761.97 410.065L761.975 424.5C732.96 423.66 701.93 424.518 672.515 424.071C669.895 422.279 669.825 422.046 668.03 419.366C667.28 393.184 668.005 363.505 667.94 336.942Z" fill="#EE8A47"/>
<path d="M569.985 336.785C574.415 337.041 578.476 336.982 582.901 336.937L597.151 337.094C597.051 348.973 597.071 360.854 597.211 372.733C597.251 377.813 597.565 385.274 597.305 390.129C594.41 394.149 580.005 407.138 575.42 411.164L575.49 431.302C570.565 431.152 565.511 431.146 560.576 431.082C560.521 425.406 560.521 419.729 560.576 414.052C560.471 408.568 560.31 403.084 560.105 397.603C563.365 394.631 566.345 391.898 569.445 388.738C570.78 376.437 570.015 350.106 569.985 336.785Z" fill="#EE8A47"/>
<path d="M569.985 336.785C574.415 337.041 578.476 336.982 582.901 336.937C582.971 351.816 583.506 370.491 582.826 385.209C578.046 389.328 565.396 400.372 561.331 404.997L560.576 414.052C560.471 408.568 560.31 403.084 560.105 397.603C563.365 394.631 566.345 391.898 569.445 388.738C570.78 376.437 570.015 350.106 569.985 336.785Z" fill="#FBCC5C"/>
<path d="M621.995 371.544C626.415 369.817 631.305 369.715 635.795 371.256C644.995 374.413 650.6 383.712 649.1 393.319C647.6 402.926 639.425 410.073 629.705 410.276C619.985 410.478 611.515 403.677 609.62 394.141C607.72 384.604 612.935 375.08 621.995 371.544Z" fill="#EE8A47"/>
<path d="M626.645 384.261C628.74 383.293 631.19 383.533 633.055 384.888C634.92 386.242 635.905 388.5 635.63 390.789C635.355 393.078 633.865 395.039 631.735 395.915C628.535 397.229 624.87 395.747 623.49 392.577C622.105 389.407 623.505 385.713 626.645 384.261Z" fill="#FBCC5C"/>
<path d="M573.44 316.883C578.24 316.438 586.02 316.66 590.93 316.664L621.89 316.693L621.5 317.057C621.575 323.013 621.485 330.438 621.865 336.272C621.97 340.26 622.005 344.552 621.595 348.527C621.34 345.482 621.555 339.816 621.575 336.584C614.165 337.221 604.77 337.016 597.15 337.093L582.9 336.937C578.475 336.982 574.415 337.041 569.985 336.785C569.985 330.177 570.1 323.347 569.7 316.767L573.44 316.883Z" fill="#F7AF84"/>
<path d="M621.5 317.057C621.575 323.013 621.485 330.439 621.865 336.272C621.97 340.26 622.005 344.552 621.595 348.527C621.34 345.482 621.555 339.816 621.575 336.585C614.165 337.221 604.77 337.017 597.15 337.094C597.375 330.619 597.315 323.625 597.375 317.108L621.5 317.057Z" fill="#FDE29F"/>
<path d="M569.7 316.767L573.44 316.883C576.765 317.049 579.57 317.092 582.895 317.059C582.93 323.685 582.935 330.311 582.9 336.937C578.475 336.982 574.415 337.041 569.985 336.785C569.985 330.178 570.1 323.347 569.7 316.767Z" fill="#FDE29F"/>
<path d="M621.89 316.693L636.19 316.776C638.865 316.805 642.89 316.717 645.45 316.889C652.025 317.363 661.235 317.051 668.015 317.003L667.94 336.942C657.485 336.998 646.735 336.942 636.3 337.142C636.28 338.852 636.335 341.548 636.105 343.161C636.005 341.118 636.03 338.768 636.005 336.697C632.16 336.311 625.855 336.345 621.865 336.272C621.485 330.439 621.575 323.013 621.5 317.057L621.89 316.693Z" fill="#FDE29F"/>
<path d="M621.89 316.693L636.19 316.776L636.005 336.697C632.16 336.311 625.855 336.345 621.865 336.272C621.485 330.439 621.575 323.013 621.5 317.057L621.89 316.693Z" fill="#C3E5EF"/>
<path d="M621.865 336.272C625.855 336.345 632.16 336.311 636.005 336.697C636.03 338.768 636.005 341.118 636.105 343.161C636.075 352.061 636.335 362.522 635.795 371.257C631.305 369.716 626.415 369.817 621.995 371.544C621.56 364.303 621.665 355.866 621.595 348.527C622.005 344.552 621.97 340.26 621.865 336.272Z" fill="#B9E2E9"/>
<path d="M461.505 431.05H476.066C485.412 431.057 495.141 430.922 504.455 431.1L519.455 431.059L546.045 431.052L560.575 431.082C565.51 431.146 570.565 431.152 575.49 431.302C593.435 433.946 594.76 447.918 594.61 462.549C594.59 467.436 594.51 472.472 594.55 477.346L594.58 503.91V518.19L594.54 545.59L594.565 560.035C594.66 569.635 595.785 579.38 588.59 586.875C581.96 593.78 573.55 593.39 564.73 593.39C563.31 593.385 561.89 593.38 560.47 593.365L546.035 593.295C537.34 593.49 528.35 593.36 519.63 593.345L504.285 593.385C496.377 593.43 488.466 593.42 480.556 593.345C475.745 593.23 470.931 593.26 466.122 593.44L465.316 593.375C459.77 593.275 454.223 593.215 448.676 593.195C429.266 591.25 428.966 575.33 429.072 560.36L429.088 546.03L429.082 518.96L429.065 504.585L429.084 476.997L429.056 462.63C428.746 436.396 435.571 430.914 461.505 431.05Z" fill="#365164"/>
<path d="M444.509 544.36L444.418 491.82C444.408 482.725 444.083 473.573 444.99 464.48C445.75 456.852 453.852 448.078 461.376 446.99C473.331 445.26 486.488 446.626 498.611 446.232C517.025 446.196 535.015 446.306 553.385 446.244C561.075 446.218 566.725 447.37 572.46 453.012C574.63 455.147 578.035 460.369 578.39 463.309C579.565 472.965 579.28 485.812 579.165 495.571C578.975 511.895 579.44 528.715 579.02 544.87C579.1 547.67 579.155 550.47 579.18 553.275C579.29 575.3 561.815 579.525 544.325 578.005C540.235 577.65 534.5 577.975 530.265 577.965L473.219 578.045C463.867 578.045 457.858 578.245 450.594 570.94C443.126 563.43 444.381 554.225 444.509 544.36Z" fill="#FEFEFE"/>
<path d="M444.509 544.36C444.883 546.95 446.149 548.85 447.535 551C456.42 564.785 472.125 563.025 486.287 562.94L513.36 562.81C527.61 562.76 542.07 563.435 556.235 562.165C570.54 560.885 572.32 554.38 579.02 544.87C579.1 547.67 579.155 550.47 579.18 553.275C579.29 575.3 561.815 579.525 544.325 578.005C540.235 577.65 534.5 577.975 530.265 577.965L473.219 578.045C463.867 578.045 457.858 578.245 450.594 570.94C443.126 563.43 444.381 554.225 444.509 544.36Z" fill="#D3D2D2"/>
<path d="M594.58 503.91L712.685 503.86L744.59 503.7C749.41 503.67 757.45 503.385 762 503.955L762.025 518.345L761.96 545.18L762.02 559.625L761.965 586.015L762.015 600.11C732.82 600.94 700.915 600.4 671.535 600.445C663.81 595.625 657.385 586.515 650.54 580.665C644.25 575.795 636.035 565.965 629.095 560.045C617.895 559.825 605.87 560.085 594.565 560.035L594.54 545.59L594.58 518.19V503.91Z" fill="#FBCC5C"/>
<path d="M594.58 503.91L712.685 503.86L744.59 503.7C749.41 503.67 757.45 503.385 762 503.955L762.025 518.345C717.025 519.13 671.77 517.835 626.75 518.265C616.175 518.365 605.135 518.515 594.58 518.19V503.91Z" fill="#B9E2E9"/>
<path d="M659.815 570.07C665.845 575.185 670.98 581.075 677.07 586.16C684.005 586.395 691.16 586.385 698.105 586.265C719.34 585.895 740.75 586.53 761.965 586.015L762.015 600.11C732.82 600.94 700.915 600.4 671.535 600.445C663.81 595.625 657.385 586.515 650.54 580.665C653.8 576.405 655.88 573.72 659.815 570.07Z" fill="#EE8A47"/>
<path d="M719.31 559.425C717.205 563.545 715.505 566.475 711.48 569.17C702.5 575.17 689.495 572.55 683.655 563.39C680.62 558.605 679.725 552.765 681.185 547.29C685.14 532.13 703.295 527.75 714.72 538.02C716.975 540.045 718.25 542.74 719.62 545.405C720.975 550.55 721.245 554.22 719.31 559.425Z" fill="#EE8A47"/>
<path d="M698.175 546.26C701.41 545 705.055 546.605 706.315 549.84C707.57 553.08 705.965 556.725 702.725 557.98C699.49 559.24 695.85 557.63 694.59 554.395C693.335 551.16 694.935 547.515 698.175 546.26Z" fill="#FBCC5C"/>
<path d="M594.54 545.59C604.45 546.03 624.72 546.08 634.69 545.7C639.46 548.935 655.22 565.15 659.815 570.07C655.88 573.72 653.8 576.405 650.54 580.665C644.25 575.795 636.035 565.965 629.095 560.045C617.895 559.825 605.87 560.085 594.565 560.035L594.54 545.59Z" fill="#B9E2E9"/>
<path d="M719.62 545.405C721.77 544.62 757.585 545.005 761.96 545.18L762.02 559.625C748 559.105 733.425 559.805 719.31 559.425C721.245 554.22 720.975 550.55 719.62 545.405Z" fill="#B9E2E9"/>
<path d="M682.075 629.52C708.715 629.3 735.36 629.28 762.005 629.465L761.99 667.145C762.095 681.845 763.74 695.44 752.43 706.95C743.23 716.315 733.005 717.31 720.665 717.295L682.565 717.135C682.26 709.46 682.405 701.235 682.41 693.515L682.075 629.52Z" fill="#FBCC5C"/>
<path d="M761.99 667.145C762.095 681.845 763.74 695.44 752.43 706.95C743.23 716.315 733.005 717.31 720.665 717.295L682.565 717.135C682.26 709.46 682.405 701.235 682.41 693.515L708.795 693.53C715.46 693.54 723.79 693.805 730.185 692.745C734.77 692.01 739.21 690.545 743.335 688.405C751.445 684.135 759.29 675.99 761.99 667.145Z" fill="#DBB04D"/>
<path d="M519.63 593.345C528.35 593.36 537.34 593.49 546.035 593.295C546.04 618.685 545.45 646.505 546.085 671.68C551.395 679.05 557.955 683.515 563.55 690.355C564.1 691.025 564.185 692.32 564.235 693.17C563.565 698.62 563.885 711.265 563.905 717.21L519.165 717.07L504.325 717.1C504.68 709.815 504.43 700.5 504.445 693.06L504.515 634.155C504.525 621 504.86 606.395 504.285 593.385L519.63 593.345Z" fill="#FBCC5C"/>
<path d="M504.285 593.385L519.63 593.345C519.195 606.045 519.42 619.915 519.4 632.73L519.375 693.49C519.395 701.35 519.325 709.21 519.165 717.07L504.325 717.1C504.68 709.815 504.43 700.5 504.445 693.06L504.515 634.155C504.525 621 504.86 606.395 504.285 593.385Z" fill="#B9E2E9"/>
<path d="M564.235 693.17C563.565 698.62 563.885 711.265 563.905 717.21L519.165 717.07C519.325 709.21 519.395 701.35 519.375 693.49C533.32 693.515 550.44 693.91 564.235 693.17Z" fill="#DBB04D"/>
<path d="M762.03 615.115L762.005 629.465C735.36 629.28 708.715 629.3 682.075 629.52L682.41 693.515C682.405 701.235 682.26 709.46 682.565 717.135C677.945 717.21 672.18 717.475 667.65 717.335C668.36 714.86 668.025 697.345 668.01 693.475C667.77 674.43 668.255 655.255 668.1 636.2C668.055 630.79 667.835 624.06 668.695 618.79C669.865 617.665 671.415 616.44 672.69 615.385C682.59 614.92 695.65 615.305 705.755 615.305L762.03 615.115Z" fill="#EE8A47"/>
<path d="M546.035 593.295L560.47 593.365C560.645 617.235 560.95 642.72 560.47 666.52C565.025 671.04 575.715 680.68 578.69 685.215L578.62 693.5L578.575 717.075L563.905 717.21C563.885 711.265 563.565 698.62 564.235 693.17C564.185 692.32 564.1 691.025 563.55 690.355C557.955 683.515 551.395 679.05 546.085 671.68C545.45 646.505 546.04 618.685 546.035 593.295Z" fill="#B9E2E9"/>
<path d="M621.8 653.25C612.665 649.92 607.24 640.515 608.935 630.94C610.63 621.365 618.955 614.395 628.68 614.405C638.4 614.41 646.715 621.4 648.39 630.98C650.07 640.555 644.625 649.955 635.485 653.265C631.065 654.87 626.22 654.865 621.8 653.25Z" fill="#EE8A47"/>
<path d="M626.84 628.32C630.175 627.245 633.744 629.08 634.814 632.41C635.884 635.745 634.054 639.315 630.719 640.385C627.389 641.455 623.819 639.625 622.744 636.29C621.674 632.96 623.51 629.39 626.84 628.32Z" fill="#FBCC5C"/>
<path d="M578.62 693.5C592.49 693.14 607.475 693.38 621.465 693.305L621.455 717.27C608.5 716.665 591.82 717.11 578.575 717.075L578.62 693.5Z" fill="#DBB04D"/>
<path d="M635.485 653.265C636.105 654.875 635.95 688.6 636.005 693.47L636.03 717.165C631.215 717.27 626.28 717.24 621.455 717.27L621.465 693.305L621.8 653.25C626.22 654.865 631.065 654.87 635.485 653.265Z" fill="#B9E2E9"/>
<path d="M636.005 693.47C646.565 693.435 657.48 693.26 668.01 693.475C668.025 697.345 668.36 714.86 667.65 717.335C658.095 716.775 645.8 717.08 636.03 717.165L636.005 693.47Z" fill="#DBB04D"/>
<path d="M341.1 316.804C346.258 316.491 364.3 316.363 369.089 316.886L386.47 316.829C391.301 316.731 396.243 316.558 401.063 316.722C410.82 316.864 420.579 316.897 430.336 316.82C434.87 316.778 439.814 316.631 444.314 316.792C464.272 317.077 484.3 316.74 504.265 316.871C504.4 321.015 504.11 333.848 504.605 336.789L504.505 338.698L504.455 431.101C495.141 430.922 485.412 431.058 476.066 431.05H461.505C435.571 430.915 428.746 436.397 429.056 462.631L429.084 476.998L429.065 504.585L293.724 504.8C292.929 504.795 293.267 504.745 292.581 504.96C284.573 492.696 275.126 489.966 261.941 497.013L261.946 467.095L261.928 452.464L261.93 427.521L261.975 413.013L261.938 362.195C261.834 348.369 261.292 337.796 271.684 326.991C283.371 314.84 297.398 316.827 313.036 316.853C322.391 316.89 331.746 316.874 341.1 316.804Z" fill="#FBCC5C"/>
<path d="M261.938 362.195C261.834 348.369 261.292 337.796 271.684 326.991C283.371 314.84 297.398 316.827 313.036 316.853C322.391 316.89 331.746 316.874 341.1 316.804L342.194 317.367C342.775 320.29 342.475 333.261 342.451 336.966C342.5 361.91 341.773 388.604 342.267 413.313C317.074 413.371 287.054 413.812 261.975 413.013L261.938 362.195Z" fill="#FBCC5C"/>
<path d="M261.938 362.195C261.834 348.369 261.292 337.796 271.684 326.991C283.371 314.84 297.398 316.827 313.036 316.853C322.391 316.89 331.746 316.874 341.1 316.804L342.194 317.367C342.775 320.29 342.475 333.261 342.451 336.966L317.399 336.985C299.779 337.022 285.016 336.586 271.153 349.789C267.001 353.743 265.189 358.203 261.938 362.195Z" fill="#FDE29F"/>
<path d="M444.314 316.792C464.272 317.077 484.3 316.74 504.265 316.871C504.4 321.015 504.11 333.848 504.605 336.789L504.505 338.698L504.455 431.1C495.141 430.922 485.412 431.057 476.066 431.05C476.155 410.281 476.133 389.513 476.002 368.745C467.58 359.986 458.47 351.756 449.886 343.147C447.851 341.107 445.889 339.409 444.26 336.993L444.183 336.575C444.346 329.982 444.39 323.386 444.314 316.792Z" fill="#FBCC5C"/>
<path d="M444.314 316.792C464.272 317.077 484.3 316.74 504.265 316.871C504.4 321.015 504.11 333.848 504.605 336.789L504.505 338.698L504.115 337.497C503.365 336.902 449.014 336.677 444.26 336.993L444.183 336.575C444.346 329.982 444.39 323.386 444.314 316.792Z" fill="#FDE29F"/>
<path d="M342.451 336.966C346.255 336.925 352.93 336.65 356.51 336.935L356.372 396.532C356.324 403.059 356.619 417.5 355.975 423.457C354.662 424.975 353.7 426.177 352.163 427.481C322.148 427.802 291.967 427.38 261.931 427.521L261.976 413.013C287.055 413.812 317.075 413.371 342.267 413.313C341.773 388.604 342.5 361.91 342.451 336.966Z" fill="#EE8A47"/>
<path d="M430.062 336.672C432.157 336.154 441.803 336.399 444.183 336.575L444.26 336.993C445.889 339.409 447.852 341.107 449.886 343.147C458.471 351.756 467.58 359.986 476.003 368.745C476.134 389.513 476.155 410.281 476.067 431.05H461.506L461.894 375.224C453.719 365.507 439.778 353.452 430.369 342.846C430.159 340.952 430.135 338.61 430.062 336.672Z" fill="#B9E2E9"/>
<path d="M387.079 366.898C391.567 365.334 396.465 365.417 400.897 367.132C409.951 370.635 415.189 380.127 413.327 389.656C411.464 399.184 403.036 406.004 393.329 405.839C383.622 405.675 375.431 398.572 373.892 388.987C372.354 379.401 377.911 370.092 387.079 366.898Z" fill="#EE8A47"/>
<path d="M391.622 379.731C394.879 378.51 398.514 380.128 399.785 383.365C401.057 386.603 399.496 390.262 396.279 391.585C394.152 392.458 391.72 392.118 389.915 390.695C388.109 389.272 387.211 386.986 387.565 384.714C387.919 382.442 389.469 380.538 391.622 379.731Z" fill="#FBCC5C"/>
<path d="M300.426 453.436C309.624 435.176 333.85 437.29 338.549 455.539C339.885 460.741 339.066 466.262 336.278 470.852C333.569 475.385 329.16 478.645 324.033 479.908C312.943 482.556 304.368 477.113 299.941 467.034C298.991 462.479 299.078 457.888 300.426 453.436Z" fill="#EE8A47"/>
<path d="M316.692 454.771C318.835 453.877 321.293 454.219 323.111 455.661C324.93 457.104 325.82 459.421 325.437 461.711C325.054 464 323.457 465.9 321.267 466.672C318.011 467.82 314.433 466.169 313.194 462.946C311.955 459.724 313.505 456.1 316.692 454.771Z" fill="#FBCC5C"/>
<path d="M341.1 316.804C346.258 316.491 364.3 316.363 369.089 316.886L386.47 316.829C386.709 323.701 386.671 330.072 386.586 336.952C376.561 337.036 366.535 337.03 356.51 336.935C352.929 336.65 346.255 336.926 342.451 336.967C342.475 333.261 342.775 320.29 342.194 317.367L341.1 316.804Z" fill="#FDE29F"/>
<path d="M341.1 316.804C346.258 316.491 364.3 316.363 369.089 316.886C364.827 317.119 360.752 317.1 356.494 317.097L356.51 336.935C352.929 336.65 346.255 336.926 342.451 336.967C342.475 333.261 342.775 320.29 342.194 317.367L341.1 316.804Z" fill="#F7AF84"/>
<path d="M430.336 316.82C434.87 316.778 439.814 316.631 444.314 316.792C444.39 323.386 444.346 329.982 444.183 336.575C441.802 336.399 432.157 336.154 430.061 336.672C425.309 337.4 406.456 337.083 401.461 336.743C401.435 330.269 401.559 323.102 401.063 316.722C410.82 316.864 420.579 316.897 430.336 316.82Z" fill="#FDE29F"/>
<path d="M430.336 316.82C434.87 316.778 439.814 316.631 444.314 316.792C444.39 323.386 444.346 329.982 444.183 336.575C441.802 336.399 432.157 336.154 430.061 336.672C430.039 330.008 429.949 323.476 430.336 316.82Z" fill="#C3E5EF"/>
<path d="M380.65 476.963C373.86 472.507 372.6 464.382 382.003 462.732C386.489 461.944 393.816 462.43 398.543 462.441C408.714 462.432 418.885 462.495 429.056 462.63L429.084 476.997C413.762 477.355 395.975 477.188 380.65 476.963Z" fill="#B9E2E9"/>
<path d="M386.471 316.829C391.301 316.73 396.244 316.558 401.064 316.722C401.56 323.102 401.435 330.268 401.461 336.743C401.415 344.948 401.753 359.433 400.897 367.132C396.465 365.417 391.568 365.334 387.08 366.898L386.916 366.744C386.365 357.372 386.599 346.446 386.587 336.952C386.672 330.071 386.709 323.7 386.471 316.829Z" fill="#C3E5EF"/>
<path d="M261.928 452.464C266.711 452.471 298.195 451.969 300.426 453.436C299.078 457.888 298.991 462.479 299.941 467.034C287.277 467.208 274.611 467.229 261.946 467.095L261.928 452.464Z" fill="#B9E2E9"/>
<path d="M202.345 351.226C216.583 351.093 232.28 350.919 246.463 351.414C246.366 359.794 246.45 368.332 246.45 376.726L235.625 376.823C225.611 376.683 203.867 378.945 195.504 373.952C186.088 368.329 189.62 352.995 202.345 351.226Z" fill="#D3D2D2"/>
<path d="M204.302 498.235C218.108 497.969 232.54 498.248 246.356 498.42C246.469 506.92 246.47 515.42 246.359 523.92L231.875 523.925C222.588 523.89 201.23 525.725 195.003 520.8C192.397 518.745 190.771 515.69 190.521 512.375C190.235 508.95 191.339 505.55 193.585 502.945C196.827 499.174 199.728 498.474 204.302 498.235Z" fill="#D3D2D2"/>
<path d="M508.135 245.568C526.865 244.503 523.975 260.72 523.92 274.029L523.775 301.479L513.915 301.513L498.419 301.431C498.399 292.817 497.134 258.911 499.446 252.979C500.97 249.075 504.465 247.091 508.135 245.568Z" fill="#D3D2D2"/>
<path d="M803.575 351.25C814.015 351.173 832.47 348.218 833.265 363.06C833.465 366.776 832.09 370.404 829.48 373.055C824.2 378.417 815.145 376.995 807.75 376.884L777.59 376.889L777.545 351.375L803.575 351.25Z" fill="#D3D2D2"/>
<path d="M418.36 245.539C435.427 244.574 433.219 261.617 433.143 273.163L433.003 301.466L422.304 301.499L407.509 301.498C407.668 292.564 406.074 257.925 409.046 252.06C410.924 248.354 414.605 246.721 418.36 245.539Z" fill="#D3D2D2"/>
<path d="M598.57 245.601C599.335 245.532 600.1 245.482 600.865 245.452C616.38 244.931 614.535 261.347 614.515 271.686L614.375 301.479L604.375 301.505L589.03 301.466C589.055 291.891 587.52 260.031 590.09 253.137C591.57 249.175 594.925 247.239 598.57 245.601Z" fill="#D3D2D2"/>
<path d="M794.18 498.25C805.55 498.12 831.995 493.923 833.125 509.655C833.39 513.425 832.025 517.13 829.375 519.825C825.605 523.73 822.285 524.015 817.355 524.005L777.59 524.04C777.58 515.5 777.62 506.965 777.7 498.428L794.18 498.25Z" fill="#D3D2D2"/>
<path d="M777.515 577.95L806.37 577.77C812.22 577.735 824.21 576.555 828.645 580.87C834.435 586.515 834.76 593.24 829.56 599.52C827.01 601.615 824.44 603.105 821.075 603.26C806.75 603.905 791.895 603.535 777.555 603.515L777.515 577.95Z" fill="#D3D2D2"/>
<path d="M200.184 578.065C213.239 577.3 232.587 577.885 246.184 577.905C246.339 586.42 246.351 594.94 246.221 603.46L237.25 603.43C228.318 603.385 219.396 603.54 210.414 603.575C204.175 603.605 195.033 603.355 191.861 596.595C187.81 587.96 192.258 581.85 200.184 578.065Z" fill="#D3D2D2"/>
<path d="M202.201 419.23C216.011 418.876 232.648 418.938 246.401 419.19C246.497 427.614 246.484 436.038 246.363 444.461L234.75 444.46C225.526 444.528 202.982 446.428 195.608 441.736C193.035 440.099 190.842 437.707 190.331 434.608C189.737 431.011 191.283 426.462 193.522 423.655C195.682 420.948 198.833 419.587 202.201 419.23Z" fill="#D3D2D2"/>
<path d="M407.507 732.32C416.01 732.27 424.513 732.32 433.016 732.47C433.147 746.525 433.677 764.77 432.355 778.77C432.195 780.465 430.484 782.905 429.473 784.305C422.01 790.325 410.476 788.83 408.19 778.45C407.025 773.16 407.519 765.1 407.527 759.465L407.507 732.32Z" fill="#D3D2D2"/>
<path d="M202.015 662.675C215.51 662.205 232.752 662.795 246.476 662.83C246.407 671.23 246.384 679.63 246.409 688.025L235.092 688.055C226.621 688.11 202.459 689.89 195.898 685.675C193.236 683.965 191.471 681.425 190.878 678.31C190.195 674.73 190.513 671.505 192.622 668.48C194.978 665.1 197.997 663.37 202.015 662.675Z" fill="#D3D2D2"/>
<path d="M321.675 732.435C329.997 732.24 338.686 732.39 347.038 732.42C347.104 746.585 347.885 765.435 346.262 779.505C346.079 781.09 344.277 783.34 343.256 784.6C335.771 790.255 324.414 788.58 322.175 778.43C321.054 773.35 321.551 765.635 321.566 760.21L321.675 732.435Z" fill="#D3D2D2"/>
<path d="M589.07 732.385C597.565 732.32 606.06 732.355 614.555 732.495L614.625 759.78C614.635 767.87 616.02 777.58 610.875 784.1C605.545 788.8 597.565 789.355 592.515 783.965C591.055 782.38 590.03 780.445 589.535 778.345C588.71 774.725 588.975 765.48 588.98 761.29L589.07 732.385Z" fill="#D3D2D2"/>
<path d="M777.6 419.247C791.515 418.987 805.895 419.05 819.83 419.142C831.67 419.221 837.515 431.117 829.265 441.052C822.765 446.049 812.48 444.73 804.46 444.69L777.63 444.538C777.515 436.108 777.505 427.677 777.6 419.247Z" fill="#D3D2D2"/>
<path d="M685.115 245.574C685.995 245.53 686.875 245.507 687.76 245.503C703.06 245.54 700.58 261.673 700.58 272.358L700.545 301.504L690.3 301.498L675.235 301.512C675.425 292.475 673.86 258.69 676.55 252.687C678.235 248.926 681.42 247.029 685.115 245.574Z" fill="#D3D2D2"/>
<path d="M498.518 732.31L523.985 732.5C523.915 741.865 524.145 751.275 523.995 760.635C523.855 768.95 525.325 777.115 520.28 784.135C514.95 789.04 507.32 789.415 502.035 784.235C500.53 782.77 499.477 780.905 498.994 778.86C498.126 775.18 498.412 765.245 498.422 760.945L498.518 732.31Z" fill="#D3D2D2"/>
<path d="M327.145 245.591C327.822 245.531 328.502 245.493 329.182 245.475C345.106 245.175 342.582 262.497 342.562 273.213L342.476 301.477L333.25 301.473L317.501 301.441C317.555 292.63 316.073 259.003 318.36 253.155C319.973 249.033 323.294 247.213 327.145 245.591Z" fill="#D3D2D2"/>
<path d="M777.56 662.9L806.905 662.81C811.585 662.79 818.48 662.315 822.905 663.16C833.87 665.255 835.955 676.375 829.58 684.35C827.635 685.965 825.085 687.545 822.545 687.685C807.825 688.47 792.225 688.06 777.51 688.03L777.56 662.9Z" fill="#D3D2D2"/>
<path d="M675.005 732.305L700.26 732.475C700.33 741.795 700.35 751.115 700.325 760.435C700.315 768.22 701.51 777.54 696.88 784.005C689.545 790.47 678.27 788.795 675.525 778.505C674.375 774.2 674.915 765.655 674.92 760.845L675.005 732.305Z" fill="#D3D2D2"/>
</svg>
