<svg width="1024" height="1024" viewBox="0 0 1024 1024" fill="none" xmlns="http://www.w3.org/2000/svg">
<path d="M526.045 734C528.548 746.566 530.467 763.464 532.311 776.511C536.311 803.582 539.87 830.724 543 857.911L527.351 868.52C522.172 871.891 517.289 875.411 512.271 879C503.303 872.186 491.462 864.354 482 857.674C483.013 843.917 486.367 823.321 488.206 809.271C491.422 784.714 494.498 758.441 498.617 734.166C503.367 737.832 507.988 742.414 512.379 746.554C517.288 742.273 521.366 738.581 526.045 734ZM482.811 721C486.508 723.181 489.828 726.371 493 729.249C487.628 769.147 479.701 811.929 473.553 852C469.333 849.602 464.047 845.893 459.907 843.156C453.146 838.673 446.508 834.011 440 829.177C447.106 807.421 458.023 783.305 466.124 761.62C468.862 754.297 479.403 726.794 482.811 721ZM541.94 721.274C544.927 724.319 580.716 818.934 584 828.777L565.454 842.233L551.211 852C546.497 813.712 538.72 767.605 532 729.184C535.031 726.413 538.1 723.681 541.213 721L541.94 721.274ZM556.004 718C559.192 719.912 564.265 722.754 567.718 720.648C573.225 717.29 577.099 720.577 582.82 721.862L583.63 722.037C597.028 744.055 611.107 770.161 624 792.76L606.396 809.34C601.55 814.035 596.924 818.569 591.825 823C577.222 791.527 562.742 754.007 549 721.559C551.792 720.383 553.348 719.505 556.004 718ZM451.673 718C463.285 726.908 463.622 715.042 475 721.392C471.545 731.754 435.15 820.288 432.081 822L430.41 820.902C420.306 811.633 410.497 802.047 401 792.15C414.539 768.909 427.473 744.284 441.431 721.424C446.516 721.495 447.415 720.887 451.673 718ZM489 713.441C501.637 712.614 524.091 713.138 537 713.498C533.549 717.877 527.567 723.241 523.408 727.215C519.838 730.627 516.136 734.481 512.616 738C507.474 733.103 491.517 718.938 489 713.441ZM441.71 682C449.848 682.019 448.776 688.841 448.952 694.64C449.123 700.251 448.822 706.275 448.208 711.868C447.942 714.277 446.58 714.814 444.657 716C443.407 715.763 438.796 714.839 438.485 713.884C436.242 707.005 437.062 694.135 437.601 686.869C437.814 683.992 440.013 683.117 441.71 682ZM562.797 680C565.922 680.085 566.965 679.921 569.354 681.708C572.174 685.932 570.468 702.927 570.681 708.609C570.82 712.492 570.196 713.563 567.568 716C564.383 715.836 563.899 715.934 561.025 714.791C557.588 710.981 559.658 694.039 559.26 688.323C558.961 683.994 559.824 682.7 562.797 680ZM582.229 680C583.621 680.489 586.271 681.53 586.731 683.555C588.535 691.571 588.241 704.827 586.94 712.934C586.658 714.727 584.591 715.389 583.376 716C580.597 715.537 579.345 715.569 577.72 713.307C576.849 708.125 576.732 689.019 577.572 683.562C578.756 681.549 580.192 681.093 582.229 680ZM474.898 682.003C483.304 681.829 483.228 688.759 482.892 696.322C482.622 702.382 484.015 711.538 480.094 715.608C477.622 716.093 477.405 716.273 475.08 715.285C470.221 710.58 472.419 691.27 473.001 684.365C473.001 684.365 474.693 682.258 474.898 682.003ZM545.538 682.039C554.789 681.467 554.402 687.2 553.648 694.268C552.795 702.273 556.563 711.468 549.64 715.98C546.392 716.157 545.251 715.137 542.316 713.532C542.263 705.98 541.862 698.22 542.049 690.699C542.176 685.551 542.056 685.073 545.538 682.039ZM458.062 680.012C460.853 679.888 465.454 680.676 465.671 683.909C466.301 693.323 465.835 702.971 465.816 712.418C465.812 714.363 464.304 714.832 462.807 715.893C462.163 715.932 461.519 715.964 460.876 715.983C459.663 716.029 456.529 716.061 455.987 714.923C452.69 707.994 454.476 693.017 454.541 685.139C454.566 682.133 456.386 681.306 458.062 680.012ZM523.498 646C527.509 650.54 531.276 655.716 534.992 660.538C536.943 663.068 545.725 671.851 544.952 674.35C543.91 674.985 540.071 677.342 539.387 677.978C535.562 681.529 537.519 681.952 532.421 682.665C518.394 682.569 503.298 683.879 489.553 681.889C490.955 682.093 482.25 675.923 479.929 674.96L479 674.581C480.412 671.274 480.629 670.349 483.096 667.742C489.291 661.186 495.407 653.115 501.085 646.052L512.413 653.647L523.498 646ZM553.896 663C556.015 663 558.453 663.141 560.597 663.218C562.086 666.519 566.433 671.711 564.523 674.205C562.866 674.474 561.215 674.776 559.569 675.122L555.475 678C553.745 674.513 548.426 666.724 550.455 663.378L553.896 663ZM477 663.024C475.076 667.548 473.353 673.023 470.658 677C465.402 675.838 465.778 674.272 459 674.142C460.831 670.482 463.076 666.61 465.079 663L477 663.024ZM453 614C456.517 615.597 465.646 622.235 469.235 624.771C477.859 630.86 486.078 636.693 495 642.411C492.846 645.631 490.162 649.158 487.86 652.327L482.768 660C476.091 655.119 470.065 656.595 462.005 657.183C459.012 642.571 455.165 628.822 453 614ZM571.91 614.278C572.951 616.726 564.591 650.941 563.504 656.457C555.731 656.122 549.064 655.034 542.364 659L538.097 652.922C535.795 649.538 532.548 645.516 530 642.195C538.853 635.295 562.068 619.945 571.613 614L571.91 614.278ZM596 596C591.303 607.758 583.093 626.801 577.24 638C575.504 636.847 575.17 636.856 574.755 636.196C575.169 636.99 575.368 636.88 577 638.038C575.008 642.703 573.368 646.551 571 651C572.206 645.728 573.268 640.421 574.183 635.09C574.126 634.973 574.066 634.847 574 634.711C576.532 625.04 577.969 616.324 579.979 606.607C585.244 602.961 590.589 599.425 596 596ZM429 597C431.385 598.051 441.533 604.86 444.358 606.682C446.098 622.006 450.847 634.854 453 649C449.286 645.975 430.73 603.471 429 597ZM436.284 462.225C437.75 461.924 437.228 461.928 438.653 462.218C440.418 468.586 439.168 477.195 442.638 488.519L460.367 479.319C462.701 493.301 469.851 506.024 480.578 515.28C482.795 509.526 485.654 505.077 489.099 500.031C495.14 514.586 501.194 521.412 512.363 532.405C525.059 520.386 528.859 515.519 536.306 500.194C539.9 505.983 541.292 509.193 543.855 515.502C555.753 505.217 561.227 494.249 564.062 479.156C569.917 482.379 575.837 485.472 581.827 488.431C584.88 477.189 584.958 473.632 585.647 462.138C588.668 462.88 591.696 463.606 594.729 464.317C598.755 471.997 601.3 480.506 604.463 487.461C615.896 512.62 609.816 521.765 605.107 547.644C602.537 559.8 599.754 575.853 596.449 587.502C569.872 607.1 539.945 626.524 512.595 646L460.273 609.93C450.101 602.896 437.707 594.729 428.052 587.225C425.222 577.883 412.138 516.009 413.045 509.06C414.724 496.203 424.321 476.258 429.434 463.561L436.284 462.225ZM385.716 546C390.573 548.064 392.412 550.978 401 553.865C391.716 576.213 383.114 599.792 374.395 622.456L349.956 622.795C344.303 622.757 338.65 622.827 333 623C348.708 597.841 368.527 570.252 385.716 546ZM638.198 546C641.371 547.397 686.684 614.281 692 623L678.57 622.847C669.34 622.558 660.096 622.366 650.859 622.27C647.72 615.587 644.121 605.535 641.376 598.469C635.679 583.554 629.885 568.677 624 553.837C630.815 551.532 632.746 550.804 638.198 546ZM413.09 553C414.799 554.331 420.579 584.291 422 589.188C419.547 597.331 417.038 605.461 414.474 613.565L392.599 618.228L384 620C390.964 598.106 399.714 576.021 408.054 554.588C408.548 553.32 411.855 553.195 413.09 553ZM611.418 553C613.869 553.459 614.303 553.502 616.537 554.507C619.199 557.767 638.428 612.506 641 620L633.277 618.298C626.065 616.723 617.807 614.716 610.582 613.675L603 590.596C606.421 578.091 608.246 565.401 611.418 553ZM355.635 538C364.312 540.36 372.052 540.216 381 540.497C373.824 551.599 365.537 562.456 357.753 573.149L324.314 619L305.741 615.093L277 609.213C286.385 599.35 300.315 586.894 310.513 577.759C325.42 564.352 340.462 551.102 355.635 538ZM668.422 538C675.037 540.895 739.03 599.657 748 609.089C738.85 610.934 729.712 612.876 720.601 614.926C713.89 616.388 707.155 617.748 700.399 619C681.733 593.162 661.05 566.047 643 540.247C652.972 540.266 657.499 540.385 667.195 538.314L668.422 538ZM336.431 518C336.872 518.164 348.996 531.996 351 533.953C332.188 550.345 313.233 566.574 294.137 582.636C287.814 587.87 276.565 597.668 270.058 602C261.667 599.703 249.513 594.474 241.113 591.076C232.366 587.659 223.661 584.133 215 580.505L293.883 539.528C307.946 532.337 322.57 525.396 336.431 518ZM687.858 518C698.188 522.332 716.917 532.532 727.4 537.862L810 580.295C802.148 583.778 793.51 587.102 785.49 590.337C775.148 594.427 765.277 598.472 754.716 602C742.426 593.119 727.555 580.047 715.832 570.056C702.116 558.362 687.258 546.022 674 533.937C680.626 527.876 682.936 525.458 687.858 518ZM296.877 499C314.195 509.117 315.97 510.626 336 510.73L253.868 551.383C241.117 557.626 224.527 566.134 211.562 571.505C208.687 569.993 205.225 568.449 202.406 566.86C184.76 557.812 167.288 548.419 150 538.692C164.65 533.934 188.488 529.789 201.659 524.469C202.668 522.744 202.358 521.73 202.412 519.505C202.741 521.813 202.429 522.555 203.688 524.028C210.158 523.027 222.389 519.322 229.036 517.507L274.183 505.177C281.214 503.249 289.971 500.507 296.877 499ZM727.825 499C758.379 506.491 791.007 516.176 821.746 524.302C838.806 529.287 857.158 533.071 874 538.4C856.736 548.439 839.778 557.342 822.373 566.897C819.64 568.184 816.401 569.553 813.687 570.884C805.615 567.765 796.729 563.457 788.9 559.619C755.966 543.478 722.327 527.754 690 510.453C709.345 510.323 710.894 508.161 727.825 499ZM237 361C259.412 367.326 281.756 374.506 304.441 381.101C319.6 385.506 339.791 390.581 354.13 396.676C356.739 397.785 364.987 407.885 367.279 410.568C391.71 439.167 392.064 440.026 427 452.138C422.189 463.886 406.287 500.4 406.242 510.829C406.193 522.296 410.32 535.229 412.718 546.472C408.448 546.792 404.92 546.951 400.639 547C394.239 543.68 391.869 541.234 386.749 536.291C387.804 533.11 392.003 523 389.899 520.732C381.632 518.922 383.271 527.861 380.05 533.712C356.082 533.573 349.684 528.508 339.092 507.592C342.276 504.368 345.412 501.097 348.499 497.778L343.592 492.874C340.841 495.355 336.717 499.995 334.078 502.796C331.945 502.925 329.809 503.014 327.673 503.062C318.243 503.197 306.164 497.803 299.396 491.305C293.002 485.165 291.136 475.372 291.266 466.764C296.33 465.629 310.796 464.741 313.745 463.048C314.299 460.591 314.02 459.932 312.398 458.284C307.957 456.613 297.14 458.835 291.384 459.315C284.294 455.572 268.883 445.571 262.586 440.339C255.158 434.167 253.238 415.142 253.238 405.611C263.019 409.912 273.022 413.686 283.206 416.919L285.812 410.952C254.122 399.37 240.58 399.167 237 361ZM787 362.76C784.915 413.423 738.459 400.927 737.572 414.393C739.067 416.124 742.299 417.361 744.468 416.472C753.173 412.902 761.891 409.588 770.744 406.362C770.148 438.956 760.897 444.491 733.19 459.292C726.205 459.179 718.526 457.514 711.598 457.522C710.68 457.523 710.578 458.143 709.847 459.141C709.526 461.424 709.455 461.28 710.264 463.415C717.307 465.322 725.063 464.982 731.831 466.884C733.095 468.12 733.068 468.82 732.966 470.644C731.599 494.962 711.752 503.33 690.839 503.438C687.76 500.15 684.289 496.823 681.075 493.632C679.157 495.193 678.079 496.355 676.359 498.154C678.791 501.392 682.55 505.533 685.264 508.695C676.924 526.702 669.258 531.827 649.782 533.436L646.049 533.464C643.31 531.999 641.321 523.535 639.858 519.695L633.668 521.902C634.9 527.268 636.375 531.18 638.261 536.388C629.312 545.815 625.508 548.265 612.415 546.439C614.57 535.441 618.233 523.835 618.618 512.637C619.035 500.48 602.856 466.178 598 452.177C631.859 442.597 636.208 435.702 658.257 409.508C660.599 407.03 667.995 397.402 671.157 396.382C708.223 384.43 747.003 372.897 784.357 362.279L786.275 362L787 362.76ZM284.479 467.8C284.739 479.09 286.018 483.804 292 493.465L227.93 509.693C220.319 511.574 209.441 514.594 201.943 516.033C186.123 519.302 169.649 524.163 154.03 527C139.231 519.065 107.043 492.239 95 480.136L202.072 472.789C228.006 471.135 258.631 468.426 284.479 467.8ZM740.491 468C767.447 469.041 794.37 471.225 821.287 472.034C823.5 472.5 823.596 472.518 826.501 472.812C835.512 473.722 844.722 474.331 853.752 474.963L901.538 478.263C909.51 478.816 921.394 479.355 929 480.614C916.596 492.247 905.149 501.988 891.418 512.141C885.037 516.862 877.75 523.036 870.907 527C865.385 525.738 825.604 515.668 823 516.5H822.5C820.204 514.239 742.37 495.982 733 493.65C738.644 484.46 739.882 478.536 740.491 468ZM504.893 341.328C526.16 340.28 535.149 341.015 551.174 354.694C570.214 370.943 567.909 390.04 575.374 411.913C580.63 427.311 586.385 442.559 592 457.603L576.603 453.508C577.857 464.15 578.318 469.162 576.603 479.612C570.328 476.085 563.984 472.685 557.569 469.416C556.186 486.041 555.226 489.694 546.097 504.19C541.084 496.543 538.958 493.165 532.46 486.919C528.958 501.733 526.787 505.78 517.165 517.651C516.166 518.946 513.522 521.668 512.306 523C500.308 511.23 497.056 502.558 491.607 487.238C485.87 493.516 483.179 497.041 478.587 504.227C470.493 491.976 467.311 483.949 466.565 469.312C462.426 470.858 451.97 476.793 447.39 479.246C446.424 471.113 446.784 461.926 446.918 453.676C441.538 454.602 437.291 455.773 432 457.214C437.725 442.948 442.662 429.155 447.703 414.676C453.484 398.071 455.234 373.993 466.904 360.796C472.777 354.156 482.906 344.911 491.673 342.749C494.91 341.951 501.359 341.569 504.893 341.328ZM974 415C967.12 427.347 931.941 460.583 919.642 469.155C897.603 468.523 875.571 467.647 853.552 466.526C848.012 466.274 826.36 465.37 821.5 465C821.402 465.118 821.319 465.19 821.252 465.229C821.193 465.192 821.136 465.208 821.089 465.244C821.03 465.204 820.997 465.103 820.988 464.967C813.392 464.475 755.248 461.666 745 461.229C756.322 453.927 767.568 449.205 773.363 437.107C789.396 435.836 806.443 433.443 822.578 431.729L926.987 419.75C940.792 418.25 960.897 415.21 974 415ZM50 414C63.1312 415.206 76.3396 417.148 89.4541 418.693L164.309 427.257C169.463 427.847 200.156 432.299 202.745 431.178C205.156 432.719 246.167 436.818 252.419 437.676C256.572 447.777 271.489 455.705 281 460.844C257.891 462.518 234.661 462.889 211.527 464.242C208.897 464.396 205.673 464.337 203.154 464.799L202.675 464.866C197.822 464.53 177.871 465.95 172.18 466.218C149.521 467.378 126.851 468.305 104.174 469C89.1845 454.497 59.2899 431.297 50 414ZM821.252 465.229C821.193 465.192 821.136 465.208 821.089 465.244C821.13 465.272 821.181 465.271 821.252 465.229ZM11 336C20.4212 339.456 34.4246 343.186 44.4082 346.087L108.99 364.497L166.323 380.635C176.858 383.66 191.913 388.579 202.308 390.782C217.15 395.252 232.036 399.575 246.962 403.753C246.852 414.123 247.385 419.805 250 430C235.743 428.344 216.139 426.583 202.26 424.039C170.86 419.108 138.242 415.709 106.669 411.057C101.734 410.33 69.9273 406.725 67.8418 405.117C53.4071 393.985 31.4666 368.957 19.5293 353.964C16.7589 350.484 12.5745 339.832 11 336ZM1013 337C1011.59 340.666 1008 350.384 1005.34 353.686C992.938 369.068 972.07 393.897 956.69 405.353C955.185 406.476 923.61 410.477 919.017 411.03C887.113 414.87 854.64 420.269 822.846 423.729C810.205 426.258 788.473 428.228 775 430C777.316 420.478 777.936 413.569 777.591 403.753C786.931 401.272 813.895 394.104 821.63 390.758C824 390 833.625 387.941 836.965 386.973L863.59 379.407L965.205 350.822C980.533 346.45 997.678 340.189 1013 337ZM0 260C55.9372 291.585 114.563 315.905 174.335 339.153C183.385 342.673 193.587 347.399 202.807 350.029C212.183 353.709 222.325 357.312 231.493 361.193C232.212 373.892 234.373 384.15 241 395C235.458 393.244 206.365 383.368 202.835 383.355C199.805 381.417 177.969 375.537 173.726 374.316L83.6758 347.543C79.5212 346.297 50.6996 338.237 48.9111 336.473C33.51 321.278 18.3799 301.11 7.10059 282.56C3.80299 277.136 1.47323 266.435 0 260ZM1024 261C1023.2 265.431 1021.36 275.991 1018.87 280.309C1008.37 298.56 991.099 322.341 976.07 336.863C973.713 339.139 953.698 344.012 948.902 345.458L858.353 372.509C853.094 374.091 823.955 383.499 821.656 384.161H821.439C818.499 385 788.308 393.644 784 395C789.983 385.236 792.628 373.064 793.122 361.745C802.129 358.302 812.741 353.879 821.729 350.949C863.02 335.4 903.907 318.803 944.345 301.174C965.812 291.699 1003.87 273.889 1024 261Z" fill="url(#paint0_linear_36_887)"/>
<path d="M510.495 371.001C522.613 370.825 543.131 393.446 535.242 406.121C528.822 416.446 520.518 427.313 512.929 436.911L511.958 437C506.669 431.841 491.519 410.095 487.502 402.77C486.32 400.614 487.449 394.466 488.586 392.09C492.898 383.083 501.507 374.902 510.495 371.001Z" fill="#633B45"/>
<path d="M511.895 378C518.932 379.859 527.939 391.328 531 397.704C528.358 406.502 518.176 417.461 512.625 427C509.596 423.623 506.629 417.849 503.67 413.833C501.155 409.897 492.571 402.366 494.205 397.227C496.316 390.591 506.128 381.157 511.895 378Z" fill="#00FF88"/>
<path d="M475.187 375.117C479.208 374.403 483.062 377.037 483.856 381.043C484.65 385.049 482.092 388.954 478.102 389.826C475.45 390.407 472.692 389.508 470.89 387.478C469.088 385.448 468.525 382.602 469.416 380.038C470.307 377.474 472.515 375.592 475.187 375.117Z" fill="#633B45"/>
<path d="M545.826 375.189C548.493 374.578 551.281 375.47 553.1 377.514C554.925 379.559 555.484 382.432 554.565 385.011C553.652 387.59 551.403 389.465 548.698 389.903C544.708 390.55 540.916 387.909 540.139 383.936C539.368 379.964 541.88 376.092 545.826 375.189Z" fill="#633B45"/>
<defs>
<linearGradient id="paint0_linear_36_887" x1="10.5" y1="541.5" x2="1024" y2="538" gradientUnits="userSpaceOnUse">
<stop stop-color="#00FF88"/>
<stop offset="1" stop-color="#00D4FF"/>
</linearGradient>
</defs>
</svg>
