<svg width="1024" height="1024" viewBox="0 0 1024 1024" fill="none" xmlns="http://www.w3.org/2000/svg">
<g clip-path="url(#clip0_36_56)">
<path d="M252.9 98.7529C380.343 97.1952 509.774 98.5382 637.366 98.5343L736.571 98.5139C758.454 98.5149 782.734 96.8758 803.981 101.216C815.987 103.668 823.914 121.661 823.896 134.054C823.842 163.86 823.771 193.683 823.797 223.486L823.851 419.256L823.869 632.802L823.878 703.615C823.86 762.725 828.789 775.612 777.787 810.115C750.143 828.808 723.214 845.938 693.907 861.981C644.881 889.181 567.192 926.879 513.568 946C445.27 923.607 269.914 836.684 220.643 787.294C209.974 776.602 203.144 763.56 202.619 747.566C201.264 706.304 202.56 664.421 202.532 623.111L202.544 365.995L202.458 210.897C202.44 183.738 201.533 155.502 203.055 128.539C204.741 98.6936 233.141 98.8092 252.9 98.7529Z" fill="#6F3238"/>
<path d="M375.956 563.308C384.427 562.983 393.183 563.072 401.632 563.002C423.78 562.811 424.667 576.674 424.549 593.535L431.981 593.663L432 611.812L424.709 611.927C424.886 625.586 427.43 635.803 414.77 644.603C405.26 649.615 365.899 650.814 362.896 635.898C359.559 619.318 361.786 598.879 361.125 581.617C360.756 571.974 367.741 566.452 375.956 563.308Z" fill="#E6C26D"/>
<path d="M380.795 577.286C386.097 577.209 404.124 576.113 407.508 578.798C408.776 582.155 409.085 585.243 408.981 588.818C408.613 601.536 409.467 614.362 408.549 627.035C408.469 628.15 407.082 629.553 406.386 630.322C402.269 631.18 383.942 631.456 379.934 629.745C378.24 626.932 378.069 622.499 378.106 618.962C378.239 606.398 377.567 593.22 378.527 580.726C378.652 579.099 379.718 578.407 380.795 577.286Z" fill="#6F3238"/>
<path d="M599.567 593.231L641.124 593.11C648.657 593.085 657.646 592.704 664.98 593.523C670.536 594.145 666.963 608.522 665.72 611.875C660.859 612.16 657.182 612.154 652.302 612.046C652.237 617.615 653.042 648.819 651.516 651.701L649.861 651.943L637.563 651.936L637.608 637.344H624.028L623.964 652L608.807 651.968L608.723 612.11H596.36C596.251 607.906 595.201 596.362 597.288 593.453L599.567 593.231Z" fill="#E6C26D"/>
<path d="M491.07 593.167C506.366 593.007 521.657 592.962 536.949 593.032C536.93 599.009 536.943 604.979 537 610.949L491 611L491.07 593.167Z" fill="#E6C26D"/>
<path d="M527.045 637C529.548 649.566 531.467 666.464 533.311 679.511C537.311 706.582 540.87 733.724 544 760.911L528.351 771.52C523.172 774.891 518.289 778.411 513.271 782C504.303 775.186 492.462 767.354 483 760.674C484.013 746.917 487.367 726.321 489.206 712.271C492.422 687.714 495.498 661.441 499.617 637.166C504.367 640.832 508.988 645.414 513.379 649.554C518.288 645.273 522.366 641.581 527.045 637ZM483.811 624C487.508 626.181 490.828 629.371 494 632.249C488.628 672.147 480.701 714.929 474.553 755C470.333 752.602 465.047 748.893 460.907 746.156C454.146 741.673 447.508 737.011 441 732.177C448.106 710.421 459.023 686.305 467.124 664.62C469.862 657.297 480.403 629.794 483.811 624ZM542.94 624.274C545.927 627.319 581.716 721.934 585 731.777L566.454 745.233L552.211 755C547.497 716.712 539.72 670.605 533 632.184C536.031 629.413 539.1 626.681 542.213 624L542.94 624.274ZM557.004 621C560.192 622.912 565.265 625.754 568.718 623.648C574.225 620.29 578.099 623.577 583.82 624.862L584.63 625.037C598.028 647.055 612.107 673.161 625 695.76L607.396 712.34C602.55 717.035 597.924 721.569 592.825 726C578.222 694.527 563.742 657.007 550 624.559C552.792 623.383 554.348 622.505 557.004 621ZM452.673 621C464.285 629.908 464.622 618.042 476 624.392C472.545 634.754 436.15 723.288 433.081 725L431.41 723.902C421.306 714.633 411.497 705.047 402 695.15C415.539 671.909 428.473 647.284 442.431 624.424C447.516 624.495 448.415 623.887 452.673 621ZM490 616.441C502.637 615.614 525.091 616.138 538 616.498C534.549 620.877 528.567 626.241 524.408 630.215C520.838 633.627 517.136 637.481 513.616 641C508.474 636.103 492.517 621.938 490 616.441ZM442.71 585C450.848 585.019 449.776 591.841 449.952 597.64C450.123 603.251 449.822 609.275 449.208 614.868C448.942 617.277 447.58 617.814 445.657 619C444.407 618.763 439.796 617.839 439.485 616.884C437.242 610.005 438.062 597.135 438.601 589.869C438.814 586.992 441.013 586.117 442.71 585ZM563.797 583C566.922 583.085 567.965 582.921 570.354 584.708C573.174 588.932 571.468 605.927 571.681 611.609C571.82 615.492 571.196 616.563 568.568 619C565.383 618.836 564.899 618.934 562.025 617.791C558.588 613.981 560.658 597.039 560.26 591.323C559.961 586.994 560.824 585.7 563.797 583ZM583.229 583C584.621 583.489 587.271 584.53 587.731 586.555C589.535 594.571 589.241 607.827 587.94 615.934C587.658 617.727 585.591 618.389 584.376 619C581.597 618.537 580.345 618.569 578.72 616.307C577.849 611.125 577.732 592.019 578.572 586.562C579.756 584.549 581.192 584.093 583.229 583ZM475.898 585.003C484.304 584.829 484.228 591.759 483.892 599.322C483.622 605.382 485.015 614.538 481.094 618.608C478.622 619.093 478.405 619.273 476.08 618.285C471.221 613.58 473.419 594.27 474.001 587.365C474.001 587.365 475.693 585.258 475.898 585.003ZM546.538 585.039C555.789 584.467 555.402 590.2 554.648 597.268C553.795 605.273 557.563 614.468 550.64 618.98C547.392 619.157 546.251 618.137 543.316 616.532C543.263 608.98 542.862 601.22 543.049 593.699C543.176 588.551 543.056 588.073 546.538 585.039ZM459.062 583.012C461.853 582.888 466.454 583.676 466.671 586.909C467.301 596.323 466.835 605.971 466.816 615.418C466.812 617.363 465.304 617.832 463.807 618.893C463.163 618.932 462.519 618.964 461.876 618.983C460.663 619.029 457.529 619.061 456.987 617.923C453.69 610.994 455.476 596.017 455.541 588.139C455.566 585.133 457.386 584.306 459.062 583.012ZM524.498 549C528.509 553.54 532.276 558.716 535.992 563.538C537.943 566.068 546.725 574.851 545.952 577.35C544.91 577.985 541.071 580.342 540.387 580.978C536.562 584.529 538.519 584.952 533.421 585.665C519.394 585.569 504.298 586.879 490.553 584.889C491.955 585.093 483.25 578.923 480.929 577.96L480 577.581C481.412 574.274 481.629 573.349 484.096 570.742C490.291 564.186 496.407 556.115 502.085 549.052L513.413 556.647L524.498 549ZM554.896 566C557.015 566 559.453 566.141 561.597 566.218C563.086 569.519 567.433 574.711 565.523 577.205C563.866 577.474 562.215 577.776 560.569 578.122L556.475 581C554.745 577.513 549.426 569.724 551.455 566.378L554.896 566ZM478 566.024C476.076 570.548 474.353 576.023 471.658 580C466.402 578.838 466.778 577.272 460 577.142C461.831 573.482 464.076 569.61 466.079 566L478 566.024ZM454 517C457.517 518.597 466.646 525.235 470.235 527.771C478.859 533.86 487.078 539.693 496 545.411C493.846 548.631 491.162 552.158 488.86 555.327L483.768 563C477.091 558.119 471.065 559.595 463.005 560.183C460.012 545.571 456.165 531.822 454 517ZM572.91 517.278C573.951 519.726 565.591 553.941 564.504 559.457C556.731 559.122 550.064 558.034 543.364 562L539.097 555.922C536.795 552.538 533.548 548.516 531 545.195C539.853 538.295 563.068 522.945 572.613 517L572.91 517.278ZM597 499C592.303 510.758 584.093 529.801 578.24 541C576.504 539.847 576.17 539.856 575.755 539.196C576.169 539.99 576.368 539.88 578 541.038C576.008 545.703 574.368 549.551 572 554C573.206 548.728 574.268 543.421 575.183 538.09C575.126 537.973 575.066 537.847 575 537.711C577.532 528.04 578.969 519.324 580.979 509.607C586.244 505.961 591.589 502.425 597 499ZM430 500C432.385 501.051 442.533 507.86 445.358 509.682C447.098 525.006 451.847 537.854 454 552C450.286 548.975 431.73 506.471 430 500ZM437.284 365.225C438.75 364.924 438.228 364.928 439.653 365.218C441.418 371.586 440.168 380.195 443.638 391.519L461.367 382.319C463.701 396.301 470.851 409.024 481.578 418.28C483.795 412.526 486.654 408.077 490.099 403.031C496.14 417.586 502.194 424.412 513.363 435.405C526.059 423.386 529.859 418.519 537.306 403.194C540.9 408.983 542.292 412.193 544.855 418.502C556.753 408.217 562.227 397.249 565.062 382.156C570.917 385.379 576.837 388.472 582.827 391.431C585.88 380.189 585.958 376.632 586.647 365.138C589.668 365.88 592.696 366.606 595.729 367.317C599.755 374.997 602.3 383.506 605.463 390.461C616.896 415.62 610.816 424.765 606.107 450.644C603.537 462.8 600.754 478.853 597.449 490.502C570.872 510.1 540.945 529.524 513.595 549L461.273 512.93C451.101 505.896 438.707 497.729 429.052 490.225C426.222 480.883 413.138 419.009 414.045 412.06C415.724 399.203 425.321 379.258 430.434 366.561L437.284 365.225ZM386.716 449C391.573 451.064 393.412 453.978 402 456.865C392.716 479.213 384.114 502.792 375.395 525.456L350.956 525.795C345.303 525.757 339.65 525.827 334 526C349.708 500.841 369.527 473.252 386.716 449ZM639.198 449C642.371 450.397 687.684 517.281 693 526L679.57 525.847C670.34 525.558 661.096 525.366 651.859 525.27C648.72 518.587 645.121 508.535 642.376 501.469C636.679 486.554 630.885 471.677 625 456.837C631.815 454.532 633.746 453.804 639.198 449ZM414.09 456C415.799 457.331 421.579 487.291 423 492.188C420.547 500.331 418.038 508.461 415.474 516.565L393.599 521.228L385 523C391.964 501.106 400.714 479.021 409.054 457.588C409.548 456.32 412.855 456.195 414.09 456ZM612.418 456C614.869 456.459 615.303 456.502 617.537 457.507C620.199 460.767 639.428 515.506 642 523L634.277 521.298C627.065 519.723 618.807 517.716 611.582 516.675L604 493.596C607.421 481.091 609.246 468.401 612.418 456ZM356.635 441C365.312 443.36 373.052 443.216 382 443.497C374.824 454.599 366.537 465.456 358.753 476.149L325.314 522L306.741 518.093L278 512.213C287.385 502.35 301.315 489.894 311.513 480.759C326.42 467.352 341.462 454.102 356.635 441ZM669.422 441C676.037 443.895 740.03 502.657 749 512.089C739.85 513.934 730.712 515.876 721.601 517.926C714.89 519.388 708.155 520.748 701.399 522C682.733 496.162 662.05 469.047 644 443.247C653.972 443.266 658.499 443.385 668.195 441.314L669.422 441ZM337.431 421C337.872 421.164 349.996 434.996 352 436.953C333.188 453.345 314.233 469.574 295.137 485.636C288.814 490.87 277.565 500.668 271.058 505C262.667 502.703 250.513 497.474 242.113 494.076C233.366 490.659 224.661 487.133 216 483.505L294.883 442.528C308.946 435.337 323.57 428.396 337.431 421ZM688.858 421C699.188 425.332 717.917 435.532 728.4 440.862L811 483.295C803.148 486.778 794.51 490.102 786.49 493.337C776.148 497.427 766.277 501.472 755.716 505C743.426 496.119 728.555 483.047 716.832 473.056C703.116 461.362 688.258 449.022 675 436.937C681.626 430.876 683.936 428.458 688.858 421ZM297.877 402C315.195 412.117 316.97 413.626 337 413.73L254.868 454.383C242.117 460.626 225.527 469.134 212.562 474.505C209.687 472.993 206.225 471.449 203.406 469.86C185.76 460.812 168.288 451.419 151 441.692C165.65 436.934 189.488 432.789 202.659 427.469C203.668 425.744 203.358 424.73 203.412 422.505C203.741 424.813 203.429 425.555 204.688 427.028C211.158 426.027 223.389 422.322 230.036 420.507L275.183 408.177C282.214 406.249 290.971 403.507 297.877 402ZM728.825 402C759.379 409.491 792.007 419.176 822.746 427.302C839.806 432.287 858.158 436.071 875 441.4C857.736 451.439 840.778 460.342 823.373 469.897C820.64 471.184 817.401 472.553 814.687 473.884C806.615 470.765 797.729 466.457 789.9 462.619C756.966 446.478 723.327 430.754 691 413.453C710.345 413.323 711.894 411.161 728.825 402ZM238 264C260.412 270.326 282.756 277.506 305.441 284.101C320.6 288.506 340.791 293.581 355.13 299.676C357.739 300.785 365.987 310.885 368.279 313.568C392.71 342.167 393.064 343.026 428 355.138C423.189 366.886 407.287 403.4 407.242 413.829C407.193 425.296 411.32 438.229 413.718 449.472C409.448 449.792 405.92 449.951 401.639 450C395.239 446.68 392.869 444.234 387.749 439.291C388.804 436.11 393.003 426 390.899 423.732C382.632 421.922 384.271 430.861 381.05 436.712C357.082 436.573 350.684 431.508 340.092 410.592C343.276 407.368 346.412 404.097 349.499 400.778L344.592 395.874C341.841 398.355 337.717 402.995 335.078 405.796C332.945 405.925 330.809 406.014 328.673 406.062C319.243 406.197 307.164 400.803 300.396 394.305C294.002 388.165 292.136 378.372 292.266 369.764C297.33 368.629 311.796 367.741 314.745 366.048C315.299 363.591 315.02 362.932 313.398 361.284C308.957 359.613 298.14 361.835 292.384 362.315C285.294 358.572 269.883 348.571 263.586 343.339C256.158 337.167 254.238 318.142 254.238 308.611C264.019 312.912 274.022 316.686 284.206 319.919L286.812 313.952C255.122 302.37 241.58 302.167 238 264ZM788 265.76C785.915 316.423 739.459 303.927 738.572 317.393C740.067 319.124 743.299 320.361 745.468 319.472C754.173 315.902 762.891 312.588 771.744 309.362C771.148 341.956 761.897 347.491 734.19 362.292C727.205 362.179 719.526 360.514 712.598 360.522C711.68 360.523 711.578 361.143 710.847 362.141C710.526 364.424 710.455 364.28 711.264 366.415C718.307 368.322 726.063 367.982 732.831 369.884C734.095 371.12 734.068 371.82 733.966 373.644C732.599 397.962 712.752 406.33 691.839 406.438C688.76 403.15 685.289 399.823 682.075 396.632C680.157 398.193 679.079 399.355 677.359 401.154C679.791 404.392 683.55 408.533 686.264 411.695C677.924 429.702 670.258 434.827 650.782 436.436L647.049 436.464C644.31 434.999 642.321 426.535 640.858 422.695L634.668 424.902C635.9 430.268 637.375 434.18 639.261 439.388C630.312 448.815 626.508 451.265 613.415 449.439C615.57 438.441 619.233 426.835 619.618 415.637C620.035 403.48 603.856 369.178 599 355.177C632.859 345.597 637.208 338.702 659.257 312.508C661.599 310.03 668.995 300.402 672.157 299.382C709.223 287.43 748.003 275.897 785.357 265.279L787.275 265L788 265.76ZM285.479 370.8C285.739 382.09 287.018 386.804 293 396.465L228.93 412.693C221.319 414.574 210.441 417.594 202.943 419.033C187.123 422.302 170.649 427.163 155.03 430C140.231 422.065 108.043 395.239 96 383.136L203.072 375.789C229.006 374.135 259.631 371.426 285.479 370.8ZM741.491 371C768.447 372.041 795.37 374.225 822.287 375.034C824.5 375.5 824.596 375.518 827.501 375.812C836.512 376.722 845.722 377.331 854.752 377.963L902.538 381.263C910.51 381.816 922.394 382.355 930 383.614C917.596 395.247 906.149 404.988 892.418 415.141C886.037 419.862 878.75 426.036 871.907 430C866.385 428.738 826.604 418.668 824 419.5H823.5C821.204 417.239 743.37 398.982 734 396.65C739.644 387.46 740.882 381.536 741.491 371ZM505.893 244.328C527.16 243.28 536.149 244.015 552.174 257.694C571.214 273.943 568.909 293.04 576.374 314.913C581.63 330.311 587.385 345.559 593 360.603L577.603 356.508C578.857 367.15 579.318 372.162 577.603 382.612C571.328 379.085 564.984 375.685 558.569 372.416C557.186 389.041 556.226 392.694 547.097 407.19C542.084 399.543 539.958 396.165 533.46 389.919C529.958 404.733 527.787 408.78 518.165 420.651C517.166 421.946 514.522 424.668 513.306 426C501.308 414.23 498.056 405.558 492.607 390.238C486.87 396.516 484.179 400.041 479.587 407.227C471.493 394.976 468.311 386.949 467.565 372.312C463.426 373.858 452.97 379.793 448.39 382.246C447.424 374.113 447.784 364.926 447.918 356.676C442.538 357.602 438.291 358.773 433 360.214C438.725 345.948 443.662 332.155 448.703 317.676C454.484 301.071 456.234 276.993 467.904 263.796C473.777 257.156 483.906 247.911 492.673 245.749C495.91 244.951 502.359 244.569 505.893 244.328ZM975 318C968.12 330.347 932.941 363.583 920.642 372.155C898.603 371.523 876.571 370.647 854.552 369.526C849.012 369.274 827.36 368.37 822.5 368C822.402 368.118 822.319 368.19 822.252 368.229C822.193 368.192 822.136 368.208 822.089 368.244C822.03 368.204 821.997 368.103 821.988 367.967C814.392 367.475 756.248 364.666 746 364.229C757.322 356.927 768.568 352.205 774.363 340.107C790.396 338.836 807.443 336.443 823.578 334.729L927.987 322.75C941.792 321.25 961.897 318.21 975 318ZM51 317C64.1312 318.206 77.3396 320.148 90.4541 321.693L165.309 330.257C170.463 330.847 201.156 335.299 203.745 334.178C206.156 335.719 247.167 339.818 253.419 340.676C257.572 350.777 272.489 358.705 282 363.844C258.891 365.518 235.661 365.889 212.527 367.242C209.897 367.396 206.673 367.337 204.154 367.799L203.675 367.866C198.822 367.53 178.871 368.95 173.18 369.218C150.521 370.378 127.851 371.305 105.174 372C90.1845 357.497 60.2899 334.297 51 317ZM822.252 368.229C822.193 368.192 822.136 368.208 822.089 368.244C822.13 368.272 822.181 368.271 822.252 368.229ZM12 239C21.4212 242.456 35.4246 246.186 45.4082 249.087L109.99 267.497L167.323 283.635C177.858 286.66 192.913 291.579 203.308 293.782C218.15 298.252 233.036 302.575 247.962 306.753C247.852 317.123 248.385 322.805 251 333C236.743 331.344 217.139 329.583 203.26 327.039C171.86 322.108 139.242 318.709 107.669 314.057C102.734 313.33 70.9273 309.725 68.8418 308.117C54.4071 296.985 32.4666 271.957 20.5293 256.964C17.7589 253.484 13.5745 242.832 12 239ZM1014 240C1012.59 243.666 1009 253.384 1006.34 256.686C993.938 272.068 973.07 296.897 957.69 308.353C956.185 309.476 924.61 313.477 920.017 314.03C888.113 317.87 855.64 323.269 823.846 326.729C811.205 329.258 789.473 331.228 776 333C778.316 323.478 778.936 316.569 778.591 306.753C787.931 304.272 814.895 297.104 822.63 293.758C825 293 834.625 290.941 837.965 289.973L864.59 282.407L966.205 253.822C981.533 249.45 998.678 243.189 1014 240ZM1 163C56.9372 194.585 115.563 218.905 175.335 242.153C184.385 245.673 194.587 250.399 203.807 253.029C213.183 256.709 223.325 260.312 232.493 264.193C233.212 276.892 235.373 287.15 242 298C236.458 296.244 207.365 286.368 203.835 286.355C200.805 284.417 178.969 278.537 174.726 277.316L84.6758 250.543C80.5212 249.297 51.6996 241.237 49.9111 239.473C34.51 224.278 19.3799 204.11 8.10059 185.56C4.80299 180.136 2.47323 169.435 1 163ZM1025 164C1024.2 168.431 1022.36 178.991 1019.87 183.309C1009.37 201.56 992.099 225.341 977.07 239.863C974.713 242.139 954.698 247.012 949.902 248.458L859.353 275.509C854.094 277.091 824.955 286.499 822.656 287.161H822.439C819.499 288 789.308 296.644 785 298C790.983 288.236 793.628 276.064 794.122 264.745C803.129 261.302 813.741 256.879 822.729 253.949C864.02 238.4 904.907 221.803 945.345 204.174C966.812 194.699 1004.87 176.889 1025 164Z" fill="url(#paint0_linear_36_56)"/>
<path d="M511.495 276.001C523.613 275.825 544.131 298.446 536.242 311.121C529.822 321.446 521.518 332.313 513.929 341.911L512.958 342C507.669 336.841 492.519 315.095 488.502 307.77C487.32 305.614 488.449 299.466 489.586 297.09C493.898 288.083 502.507 279.902 511.495 276.001Z" fill="#633B45"/>
<path d="M512.895 283C519.932 284.859 528.939 296.328 532 302.704C529.358 311.502 519.176 322.461 513.625 332C510.596 328.623 507.629 322.849 504.67 318.833C502.155 314.897 493.571 307.366 495.205 302.227C497.316 295.591 507.128 286.157 512.895 283Z" fill="#00FF88"/>
<path d="M476.187 280.117C480.208 279.403 484.062 282.037 484.856 286.043C485.65 290.049 483.092 293.954 479.102 294.826C476.45 295.407 473.692 294.508 471.89 292.478C470.088 290.448 469.525 287.602 470.416 285.038C471.307 282.474 473.515 280.592 476.187 280.117Z" fill="#633B45"/>
<path d="M546.826 280.189C549.493 279.578 552.281 280.47 554.1 282.514C555.925 284.559 556.484 287.432 555.565 290.011C554.652 292.59 552.403 294.465 549.698 294.903C545.708 295.55 541.916 292.909 541.139 288.936C540.368 284.964 542.88 281.092 546.826 280.189Z" fill="#633B45"/>
</g>
<defs>
<linearGradient id="paint0_linear_36_56" x1="11.5" y1="444.5" x2="1025" y2="441" gradientUnits="userSpaceOnUse">
<stop stop-color="#00FF88"/>
<stop offset="1" stop-color="#00D4FF"/>
</linearGradient>
<clipPath id="clip0_36_56">
<rect width="1024" height="1024" fill="white"/>
</clipPath>
</defs>
</svg>
