<svg width="1024" height="1024" viewBox="0 0 1024 1024" fill="none" xmlns="http://www.w3.org/2000/svg">
<path d="M252.9 98.7529C380.343 97.1952 509.774 98.5382 637.366 98.5343L736.571 98.5139C758.454 98.5149 782.734 96.8758 803.981 101.216C815.987 103.668 823.914 121.661 823.896 134.054C823.842 163.86 823.771 193.683 823.797 223.486L823.851 419.256L823.869 632.802L823.878 703.615C823.86 762.725 828.789 775.612 777.787 810.115C750.143 828.808 723.214 845.938 693.907 861.981C644.881 889.181 567.192 926.879 513.568 946C445.27 923.607 269.914 836.684 220.643 787.294C209.974 776.602 203.144 763.56 202.619 747.566C201.264 706.304 202.56 664.421 202.532 623.111L202.544 365.995L202.458 210.897C202.44 183.738 201.533 155.502 203.055 128.539C204.741 98.6936 233.141 98.8092 252.9 98.7529Z" fill="#6F3238"/>
<path d="M374.956 658.308C383.427 657.983 392.183 658.072 400.632 658.002C422.78 657.811 423.667 671.674 423.549 688.535L430.981 688.663L431 706.812L423.709 706.927C423.886 720.586 426.43 730.803 413.77 739.603C404.26 744.615 364.899 745.814 361.896 730.898C358.559 714.318 360.786 693.879 360.125 676.617C359.756 666.974 366.741 661.452 374.956 658.308Z" fill="#E6C26D"/>
<path d="M379.795 673.286C385.097 673.209 403.124 672.113 406.508 674.798C407.776 678.155 408.085 681.243 407.981 684.818C407.613 697.536 408.467 710.362 407.549 723.035C407.469 724.15 406.082 725.553 405.386 726.322C401.269 727.18 382.942 727.456 378.934 725.745C377.24 722.932 377.069 718.499 377.106 714.962C377.239 702.398 376.567 689.22 377.527 676.726C377.652 675.099 378.718 674.407 379.795 673.286Z" fill="#6F3238"/>
<path d="M598.567 688.231L640.124 688.11C647.657 688.085 656.646 687.704 663.98 688.523C669.536 689.145 665.963 703.522 664.72 706.875C659.859 707.16 656.182 707.154 651.302 707.046C651.237 712.615 652.042 743.819 650.516 746.701L648.861 746.943L636.563 746.936L636.608 732.344H623.028L622.964 747L607.807 746.968L607.723 707.11H595.36C595.251 702.906 594.201 691.362 596.288 688.453L598.567 688.231Z" fill="#E6C26D"/>
<path d="M490.07 688.167C505.366 688.007 520.657 687.962 535.949 688.032C535.93 694.009 535.943 699.979 536 705.949L490 706L490.07 688.167Z" fill="#E6C26D"/>
<path d="M526.045 732C528.548 744.566 530.467 761.464 532.311 774.511C536.311 801.582 539.87 828.724 543 855.911L527.351 866.52C522.172 869.891 517.289 873.411 512.271 877C503.303 870.186 491.462 862.354 482 855.674C483.013 841.917 486.367 821.321 488.206 807.271C491.422 782.714 494.498 756.441 498.617 732.166C503.367 735.832 507.988 740.414 512.379 744.554C517.288 740.273 521.366 736.581 526.045 732ZM482.811 719C486.508 721.181 489.828 724.371 493 727.249C487.628 767.147 479.701 809.929 473.553 850C469.333 847.602 464.047 843.893 459.907 841.156C453.146 836.673 446.508 832.011 440 827.177C447.106 805.421 458.023 781.305 466.124 759.62C468.862 752.297 479.403 724.794 482.811 719ZM541.94 719.274C544.927 722.319 580.716 816.934 584 826.777L565.454 840.233L551.211 850C546.497 811.712 538.72 765.605 532 727.184C535.031 724.413 538.1 721.681 541.213 719L541.94 719.274ZM556.004 716C559.192 717.912 564.265 720.754 567.718 718.648C573.225 715.29 577.099 718.577 582.82 719.862L583.63 720.037C597.028 742.055 611.107 768.161 624 790.76L606.396 807.34C601.55 812.035 596.924 816.569 591.825 821C577.222 789.527 562.742 752.007 549 719.559C551.792 718.383 553.348 717.505 556.004 716ZM451.673 716C463.285 724.908 463.622 713.042 475 719.392C471.545 729.754 435.15 818.288 432.081 820L430.41 818.902C420.306 809.633 410.497 800.047 401 790.15C414.539 766.909 427.473 742.284 441.431 719.424C446.516 719.495 447.415 718.887 451.673 716ZM489 711.441C501.637 710.614 524.091 711.138 537 711.498C533.549 715.877 527.567 721.241 523.408 725.215C519.838 728.627 516.136 732.481 512.616 736C507.474 731.103 491.517 716.938 489 711.441ZM441.71 680C449.848 680.019 448.776 686.841 448.952 692.64C449.123 698.251 448.822 704.275 448.208 709.868C447.942 712.277 446.58 712.814 444.657 714C443.407 713.763 438.796 712.839 438.485 711.884C436.242 705.005 437.062 692.135 437.601 684.869C437.814 681.992 440.013 681.117 441.71 680ZM562.797 678C565.922 678.085 566.965 677.921 569.354 679.708C572.174 683.932 570.468 700.927 570.681 706.609C570.82 710.492 570.196 711.563 567.568 714C564.383 713.836 563.899 713.934 561.025 712.791C557.588 708.981 559.658 692.039 559.26 686.323C558.961 681.994 559.824 680.7 562.797 678ZM582.229 678C583.621 678.489 586.271 679.53 586.731 681.555C588.535 689.571 588.241 702.827 586.94 710.934C586.658 712.727 584.591 713.389 583.376 714C580.597 713.537 579.345 713.569 577.72 711.307C576.849 706.125 576.732 687.019 577.572 681.562C578.756 679.549 580.192 679.093 582.229 678ZM474.898 680.003C483.304 679.829 483.228 686.759 482.892 694.322C482.622 700.382 484.015 709.538 480.094 713.608C477.622 714.093 477.405 714.273 475.08 713.285C470.221 708.58 472.419 689.27 473.001 682.365C473.001 682.365 474.693 680.258 474.898 680.003ZM545.538 680.039C554.789 679.467 554.402 685.2 553.648 692.268C552.795 700.273 556.563 709.468 549.64 713.98C546.392 714.157 545.251 713.137 542.316 711.532C542.263 703.98 541.862 696.22 542.049 688.699C542.176 683.551 542.056 683.073 545.538 680.039ZM458.062 678.012C460.853 677.888 465.454 678.676 465.671 681.909C466.301 691.323 465.835 700.971 465.816 710.418C465.812 712.363 464.304 712.832 462.807 713.893C462.163 713.932 461.519 713.964 460.876 713.983C459.663 714.029 456.529 714.061 455.987 712.923C452.69 705.994 454.476 691.017 454.541 683.139C454.566 680.133 456.386 679.306 458.062 678.012ZM523.498 644C527.509 648.54 531.276 653.716 534.992 658.538C536.943 661.068 545.725 669.851 544.952 672.35C543.91 672.985 540.071 675.342 539.387 675.978C535.562 679.529 537.519 679.952 532.421 680.665C518.394 680.569 503.298 681.879 489.553 679.889C490.955 680.093 482.25 673.923 479.929 672.96L479 672.581C480.412 669.274 480.629 668.349 483.096 665.742C489.291 659.186 495.407 651.115 501.085 644.052L512.413 651.647L523.498 644ZM553.896 661C556.015 661 558.453 661.141 560.597 661.218C562.086 664.519 566.433 669.711 564.523 672.205C562.866 672.474 561.215 672.776 559.569 673.122L555.475 676C553.745 672.513 548.426 664.724 550.455 661.378L553.896 661ZM477 661.024C475.076 665.548 473.353 671.023 470.658 675C465.402 673.838 465.778 672.272 459 672.142C460.831 668.482 463.076 664.61 465.079 661L477 661.024ZM453 612C456.517 613.597 465.646 620.235 469.235 622.771C477.859 628.86 486.078 634.693 495 640.411C492.846 643.631 490.162 647.158 487.86 650.327L482.768 658C476.091 653.119 470.065 654.595 462.005 655.183C459.012 640.571 455.165 626.822 453 612ZM571.91 612.278C572.951 614.726 564.591 648.941 563.504 654.457C555.731 654.122 549.064 653.034 542.364 657L538.097 650.922C535.795 647.538 532.548 643.516 530 640.195C538.853 633.295 562.068 617.945 571.613 612L571.91 612.278ZM596 594C591.303 605.758 583.093 624.801 577.24 636C575.504 634.847 575.17 634.856 574.755 634.196C575.169 634.99 575.368 634.88 577 636.038C575.008 640.703 573.368 644.551 571 649C572.206 643.728 573.268 638.421 574.183 633.09C574.126 632.973 574.066 632.847 574 632.711C576.532 623.04 577.969 614.324 579.979 604.607C585.244 600.961 590.589 597.425 596 594ZM429 595C431.385 596.051 441.533 602.86 444.358 604.682C446.098 620.006 450.847 632.854 453 647C449.286 643.975 430.73 601.471 429 595ZM436.284 460.225C437.75 459.924 437.228 459.928 438.653 460.218C440.418 466.586 439.168 475.195 442.638 486.519L460.367 477.319C462.701 491.301 469.851 504.024 480.578 513.28C482.795 507.526 485.654 503.077 489.099 498.031C495.14 512.586 501.194 519.412 512.363 530.405C525.059 518.386 528.859 513.519 536.306 498.194C539.9 503.983 541.292 507.193 543.855 513.502C555.753 503.217 561.227 492.249 564.062 477.156C569.917 480.379 575.837 483.472 581.827 486.431C584.88 475.189 584.958 471.632 585.647 460.138C588.668 460.88 591.696 461.606 594.729 462.317C598.755 469.997 601.3 478.506 604.463 485.461C615.896 510.62 609.816 519.765 605.107 545.644C602.537 557.8 599.754 573.853 596.449 585.502C569.872 605.1 539.945 624.524 512.595 644L460.273 607.93C450.101 600.896 437.707 592.729 428.052 585.225C425.222 575.883 412.138 514.009 413.045 507.06C414.724 494.203 424.321 474.258 429.434 461.561L436.284 460.225ZM385.716 544C390.573 546.064 392.412 548.978 401 551.865C391.716 574.213 383.114 597.792 374.395 620.456L349.956 620.795C344.303 620.757 338.65 620.827 333 621C348.708 595.841 368.527 568.252 385.716 544ZM638.198 544C641.371 545.397 686.684 612.281 692 621L678.57 620.847C669.34 620.558 660.096 620.366 650.859 620.27C647.72 613.587 644.121 603.535 641.376 596.469C635.679 581.554 629.885 566.677 624 551.837C630.815 549.532 632.746 548.804 638.198 544ZM413.09 551C414.799 552.331 420.579 582.291 422 587.188C419.547 595.331 417.038 603.461 414.474 611.565L392.599 616.228L384 618C390.964 596.106 399.714 574.021 408.054 552.588C408.548 551.32 411.855 551.195 413.09 551ZM611.418 551C613.869 551.459 614.303 551.502 616.537 552.507C619.199 555.767 638.428 610.506 641 618L633.277 616.298C626.065 614.723 617.807 612.716 610.582 611.675L603 588.596C606.421 576.091 608.246 563.401 611.418 551ZM355.635 536C364.312 538.36 372.052 538.216 381 538.497C373.824 549.599 365.537 560.456 357.753 571.149L324.314 617L305.741 613.093L277 607.213C286.385 597.35 300.315 584.894 310.513 575.759C325.42 562.352 340.462 549.102 355.635 536ZM668.422 536C675.037 538.895 739.03 597.657 748 607.089C738.85 608.934 729.712 610.876 720.601 612.926C713.89 614.388 707.155 615.748 700.399 617C681.733 591.162 661.05 564.047 643 538.247C652.972 538.266 657.499 538.385 667.195 536.314L668.422 536ZM336.431 516C336.872 516.164 348.996 529.996 351 531.953C332.188 548.345 313.233 564.574 294.137 580.636C287.814 585.87 276.565 595.668 270.058 600C261.667 597.703 249.513 592.474 241.113 589.076C232.366 585.659 223.661 582.133 215 578.505L293.883 537.528C307.946 530.337 322.57 523.396 336.431 516ZM687.858 516C698.188 520.332 716.917 530.532 727.4 535.862L810 578.295C802.148 581.778 793.51 585.102 785.49 588.337C775.148 592.427 765.277 596.472 754.716 600C742.426 591.119 727.555 578.047 715.832 568.056C702.116 556.362 687.258 544.022 674 531.937C680.626 525.876 682.936 523.458 687.858 516ZM296.877 497C314.195 507.117 315.97 508.626 336 508.73L253.868 549.383C241.117 555.626 224.527 564.134 211.562 569.505C208.687 567.993 205.225 566.449 202.406 564.86C184.76 555.812 167.288 546.419 150 536.692C164.65 531.934 188.488 527.789 201.659 522.469C202.668 520.744 202.358 519.73 202.412 517.505C202.741 519.813 202.429 520.555 203.688 522.028C210.158 521.027 222.389 517.322 229.036 515.507L274.183 503.177C281.214 501.249 289.971 498.507 296.877 497ZM727.825 497C758.379 504.491 791.007 514.176 821.746 522.302C838.806 527.287 857.158 531.071 874 536.4C856.736 546.439 839.778 555.342 822.373 564.897C819.64 566.184 816.401 567.553 813.687 568.884C805.615 565.765 796.729 561.457 788.9 557.619C755.966 541.478 722.327 525.754 690 508.453C709.345 508.323 710.894 506.161 727.825 497ZM237 359C259.412 365.326 281.756 372.506 304.441 379.101C319.6 383.506 339.791 388.581 354.13 394.676C356.739 395.785 364.987 405.885 367.279 408.568C391.71 437.167 392.064 438.026 427 450.138C422.189 461.886 406.287 498.4 406.242 508.829C406.193 520.296 410.32 533.229 412.718 544.472C408.448 544.792 404.92 544.951 400.639 545C394.239 541.68 391.869 539.234 386.749 534.291C387.804 531.11 392.003 521 389.899 518.732C381.632 516.922 383.271 525.861 380.05 531.712C356.082 531.573 349.684 526.508 339.092 505.592C342.276 502.368 345.412 499.097 348.499 495.778L343.592 490.874C340.841 493.355 336.717 497.995 334.078 500.796C331.945 500.925 329.809 501.014 327.673 501.062C318.243 501.197 306.164 495.803 299.396 489.305C293.002 483.165 291.136 473.372 291.266 464.764C296.33 463.629 310.796 462.741 313.745 461.048C314.299 458.591 314.02 457.932 312.398 456.284C307.957 454.613 297.14 456.835 291.384 457.315C284.294 453.572 268.883 443.571 262.586 438.339C255.158 432.167 253.238 413.142 253.238 403.611C263.019 407.912 273.022 411.686 283.206 414.919L285.812 408.952C254.122 397.37 240.58 397.167 237 359ZM787 360.76C784.915 411.423 738.459 398.927 737.572 412.393C739.067 414.124 742.299 415.361 744.468 414.472C753.173 410.902 761.891 407.588 770.744 404.362C770.148 436.956 760.897 442.491 733.19 457.292C726.205 457.179 718.526 455.514 711.598 455.522C710.68 455.523 710.578 456.143 709.847 457.141C709.526 459.424 709.455 459.28 710.264 461.415C717.307 463.322 725.063 462.982 731.831 464.884C733.095 466.12 733.068 466.82 732.966 468.644C731.599 492.962 711.752 501.33 690.839 501.438C687.76 498.15 684.289 494.823 681.075 491.632C679.157 493.193 678.079 494.355 676.359 496.154C678.791 499.392 682.55 503.533 685.264 506.695C676.924 524.702 669.258 529.827 649.782 531.436L646.049 531.464C643.31 529.999 641.321 521.535 639.858 517.695L633.668 519.902C634.9 525.268 636.375 529.18 638.261 534.388C629.312 543.815 625.508 546.265 612.415 544.439C614.57 533.441 618.233 521.835 618.618 510.637C619.035 498.48 602.856 464.178 598 450.177C631.859 440.597 636.208 433.702 658.257 407.508C660.599 405.03 667.995 395.402 671.157 394.382C708.223 382.43 747.003 370.897 784.357 360.279L786.275 360L787 360.76ZM284.479 465.8C284.739 477.09 286.018 481.804 292 491.465L227.93 507.693C220.319 509.574 209.441 512.594 201.943 514.033C186.123 517.302 169.649 522.163 154.03 525C139.231 517.065 107.043 490.239 95 478.136L202.072 470.789C228.006 469.135 258.631 466.426 284.479 465.8ZM740.491 466C767.447 467.041 794.37 469.225 821.287 470.034C823.5 470.5 823.596 470.518 826.501 470.812C835.512 471.722 844.722 472.331 853.752 472.963L901.538 476.263C909.51 476.816 921.394 477.355 929 478.614C916.596 490.247 905.149 499.988 891.418 510.141C885.037 514.862 877.75 521.036 870.907 525C865.385 523.738 825.604 513.668 823 514.5H822.5C820.204 512.239 742.37 493.982 733 491.65C738.644 482.46 739.882 476.536 740.491 466ZM504.893 339.328C526.16 338.28 535.149 339.015 551.174 352.694C570.214 368.943 567.909 388.04 575.374 409.913C580.63 425.311 586.385 440.559 592 455.603L576.603 451.508C577.857 462.15 578.318 467.162 576.603 477.612C570.328 474.085 563.984 470.685 557.569 467.416C556.186 484.041 555.226 487.694 546.097 502.19C541.084 494.543 538.958 491.165 532.46 484.919C528.958 499.733 526.787 503.78 517.165 515.651C516.166 516.946 513.522 519.668 512.306 521C500.308 509.23 497.056 500.558 491.607 485.238C485.87 491.516 483.179 495.041 478.587 502.227C470.493 489.976 467.311 481.949 466.565 467.312C462.426 468.858 451.97 474.793 447.39 477.246C446.424 469.113 446.784 459.926 446.918 451.676C441.538 452.602 437.291 453.773 432 455.214C437.725 440.948 442.662 427.155 447.703 412.676C453.484 396.071 455.234 371.993 466.904 358.796C472.777 352.156 482.906 342.911 491.673 340.749C494.91 339.951 501.359 339.569 504.893 339.328ZM974 413C967.12 425.347 931.941 458.583 919.642 467.155C897.603 466.523 875.571 465.647 853.552 464.526C848.012 464.274 826.36 463.37 821.5 463C821.402 463.118 821.319 463.19 821.252 463.229C821.193 463.192 821.136 463.208 821.089 463.244C821.03 463.204 820.997 463.103 820.988 462.967C813.392 462.475 755.248 459.666 745 459.229C756.322 451.927 767.568 447.205 773.363 435.107C789.396 433.836 806.443 431.443 822.578 429.729L926.987 417.75C940.792 416.25 960.897 413.21 974 413ZM50 412C63.1312 413.206 76.3396 415.148 89.4541 416.693L164.309 425.257C169.463 425.847 200.156 430.299 202.745 429.178C205.156 430.719 246.167 434.818 252.419 435.676C256.572 445.777 271.489 453.705 281 458.844C257.891 460.518 234.661 460.889 211.527 462.242C208.897 462.396 205.673 462.337 203.154 462.799L202.675 462.866C197.822 462.53 177.871 463.95 172.18 464.218C149.521 465.378 126.851 466.305 104.174 467C89.1845 452.497 59.2899 429.297 50 412ZM821.252 463.229C821.193 463.192 821.136 463.208 821.089 463.244C821.13 463.272 821.181 463.271 821.252 463.229ZM11 334C20.4212 337.456 34.4246 341.186 44.4082 344.087L108.99 362.497L166.323 378.635C176.858 381.66 191.913 386.579 202.308 388.782C217.15 393.252 232.036 397.575 246.962 401.753C246.852 412.123 247.385 417.805 250 428C235.743 426.344 216.139 424.583 202.26 422.039C170.86 417.108 138.242 413.709 106.669 409.057C101.734 408.33 69.9273 404.725 67.8418 403.117C53.4071 391.985 31.4666 366.957 19.5293 351.964C16.7589 348.484 12.5745 337.832 11 334ZM1013 335C1011.59 338.666 1008 348.384 1005.34 351.686C992.938 367.068 972.07 391.897 956.69 403.353C955.185 404.476 923.61 408.477 919.017 409.03C887.113 412.87 854.64 418.269 822.846 421.729C810.205 424.258 788.473 426.228 775 428C777.316 418.478 777.936 411.569 777.591 401.753C786.931 399.272 813.895 392.104 821.63 388.758C824 388 833.625 385.941 836.965 384.973L863.59 377.407L965.205 348.822C980.533 344.45 997.678 338.189 1013 335ZM0 258C55.9372 289.585 114.563 313.905 174.335 337.153C183.385 340.673 193.587 345.399 202.807 348.029C212.183 351.709 222.325 355.312 231.493 359.193C232.212 371.892 234.373 382.15 241 393C235.458 391.244 206.365 381.368 202.835 381.355C199.805 379.417 177.969 373.537 173.726 372.316L83.6758 345.543C79.5212 344.297 50.6996 336.237 48.9111 334.473C33.51 319.278 18.3799 299.11 7.10059 280.56C3.80299 275.136 1.47323 264.435 0 258ZM1024 259C1023.2 263.431 1021.36 273.991 1018.87 278.309C1008.37 296.56 991.099 320.341 976.07 334.863C973.713 337.139 953.698 342.012 948.902 343.458L858.353 370.509C853.094 372.091 823.955 381.499 821.656 382.161H821.439C818.499 383 788.308 391.644 784 393C789.983 383.236 792.628 371.064 793.122 359.745C802.129 356.302 812.741 351.879 821.729 348.949C863.02 333.4 903.907 316.803 944.345 299.174C965.812 289.699 1003.87 271.889 1024 259Z" fill="url(#paint0_linear_36_56)"/>
<path d="M510.495 371.001C522.613 370.825 543.131 393.446 535.242 406.121C528.822 416.446 520.518 427.313 512.929 436.911L511.958 437C506.669 431.841 491.519 410.095 487.502 402.77C486.32 400.614 487.449 394.466 488.586 392.09C492.898 383.083 501.507 374.902 510.495 371.001Z" fill="#633B45"/>
<path d="M511.895 378C518.932 379.859 527.939 391.328 531 397.704C528.358 406.502 518.176 417.461 512.625 427C509.596 423.623 506.629 417.849 503.67 413.833C501.155 409.897 492.571 402.366 494.205 397.227C496.316 390.591 506.128 381.157 511.895 378Z" fill="#00FF88"/>
<path d="M475.187 375.117C479.208 374.403 483.062 377.037 483.856 381.043C484.65 385.049 482.092 388.954 478.102 389.826C475.45 390.407 472.692 389.508 470.89 387.478C469.088 385.448 468.525 382.602 469.416 380.038C470.307 377.474 472.515 375.592 475.187 375.117Z" fill="#633B45"/>
<path d="M545.826 375.189C548.493 374.578 551.281 375.47 553.1 377.514C554.925 379.559 555.484 382.432 554.565 385.011C553.652 387.59 551.403 389.465 548.698 389.903C544.708 390.55 540.916 387.909 540.139 383.936C539.368 379.964 541.88 376.092 545.826 375.189Z" fill="#633B45"/>
<path d="M471.24 221.44L471.6 251.5C468.84 256.18 465.18 260.44 460.62 264.28C456.06 268 450.48 271 443.88 273.28C437.4 275.44 429.78 276.52 421.02 276.52C407.1 276.4 394.86 273.7 384.3 268.42C373.74 263.14 365.52 255.64 359.64 245.92C353.88 236.08 351 224.38 351 210.82C351 197.5 353.88 185.98 359.64 176.26C365.4 166.42 373.56 158.86 384.12 153.58C394.68 148.18 407.22 145.48 421.74 145.48C431.1 145.48 439.5 146.56 446.94 148.72C454.38 150.76 460.68 153.22 465.84 156.1L467.28 185.08H465.66C462.66 173.68 457.32 165.4 449.64 160.24C442.08 154.96 433.2 152.32 423 152.32C413.16 152.32 404.64 154.72 397.44 159.52C390.24 164.2 384.72 170.92 380.88 179.68C377.04 188.32 375.12 198.58 375.12 210.46C375.12 222.34 376.98 232.72 380.7 241.6C384.54 250.36 389.88 257.2 396.72 262.12C403.68 266.92 411.78 269.44 421.02 269.68C430.02 269.68 437.82 268.18 444.42 265.18C451.14 262.06 456.6 256.96 460.8 249.88C465.12 242.8 468.12 233.32 469.8 221.44H471.24ZM526.039 148V270.4C526.039 276.52 524.839 282.04 522.439 286.96C520.159 292 516.979 296.26 512.899 299.74C508.939 303.34 504.379 306.04 499.219 307.84C494.059 309.64 488.659 310.36 483.019 310V308.38C487.699 306.46 491.599 303.46 494.719 299.38C497.839 295.42 500.179 290.86 501.739 285.7C503.299 280.54 504.079 275.26 504.079 269.86V148H526.039ZM504.619 161.14H504.079C503.959 158.02 502.759 155.38 500.479 153.22C498.319 150.94 495.679 149.8 492.559 149.8C492.559 149.8 492.139 149.8 491.299 149.8C490.579 149.8 490.219 149.8 490.219 149.8V148H504.619V161.14ZM525.499 161.14V148H539.899V149.8C539.899 149.8 539.479 149.8 538.639 149.8C537.919 149.8 537.559 149.8 537.559 149.8C534.439 149.8 531.739 150.94 529.459 153.22C527.299 155.38 526.159 158.02 526.039 161.14H525.499ZM617.919 148C631.599 148 643.479 150.58 653.559 155.74C663.759 160.78 671.619 168.04 677.139 177.52C682.659 187 685.419 198.16 685.419 211C685.419 223.84 682.659 235 677.139 244.48C671.619 253.84 663.759 261.1 653.559 266.26C643.479 271.42 631.599 274 617.919 274H576.519L576.339 267.16C578.619 267.16 581.439 267.16 584.799 267.16C588.279 267.16 591.819 267.16 595.419 267.16C599.139 267.16 602.559 267.16 605.679 267.16C608.919 267.16 611.499 267.16 613.419 267.16C615.459 267.16 616.479 267.16 616.479 267.16C625.719 267.16 633.639 264.88 640.239 260.32C646.959 255.64 652.179 249.1 655.899 240.7C659.619 232.3 661.479 222.4 661.479 211C661.479 199.6 659.619 189.7 655.899 181.3C652.179 172.9 646.959 166.42 640.239 161.86C633.519 157.18 625.599 154.84 616.479 154.84C616.479 154.84 615.399 154.84 613.239 154.84C611.199 154.84 608.499 154.84 605.139 154.84C601.899 154.84 598.359 154.84 594.519 154.84C590.679 154.84 586.959 154.84 583.359 154.84C579.879 154.84 576.939 154.84 574.539 154.84V148H617.919ZM589.839 148V274H567.879V148H589.839ZM568.419 260.86V274H554.019V272.2C554.019 272.2 554.379 272.2 555.099 272.2C555.939 272.2 556.359 272.2 556.359 272.2C559.479 272.2 562.119 271.12 564.279 268.96C566.559 266.68 567.759 263.98 567.879 260.86H568.419ZM568.419 161.14H567.879C567.879 158.02 566.739 155.38 564.459 153.22C562.179 150.94 559.479 149.8 556.359 149.8C556.359 149.8 555.999 149.8 555.279 149.8C554.559 149.8 554.199 149.8 554.199 149.8L554.019 148H568.419V161.14Z" fill="#E6C26D"/>
<defs>
<linearGradient id="paint0_linear_36_56" x1="10.5" y1="539.5" x2="1024" y2="536" gradientUnits="userSpaceOnUse">
<stop stop-color="#00FF88"/>
<stop offset="1" stop-color="#00D4FF"/>
</linearGradient>
</defs>
</svg>
