<svg width="1024" height="1024" viewBox="0 0 1024 1024" fill="none" xmlns="http://www.w3.org/2000/svg">
<path d="M252.9 98.7529C380.343 97.1952 509.774 98.5382 637.366 98.5343L736.571 98.5139C758.454 98.5149 782.734 96.8758 803.981 101.216C815.987 103.668 823.914 121.661 823.896 134.054C823.842 163.86 823.771 193.683 823.797 223.486L823.851 419.256L823.869 632.802L823.878 703.614C823.86 762.725 828.789 775.612 777.787 810.115C750.143 828.808 723.215 845.938 693.907 861.981C644.881 889.181 567.192 926.879 513.568 946C445.27 923.607 269.914 836.684 220.643 787.294C209.974 776.602 203.144 763.56 202.619 747.566C201.264 706.304 202.56 664.421 202.532 623.111L202.544 365.995L202.458 210.897C202.44 183.738 201.533 155.502 203.055 128.539C204.741 98.6936 233.141 98.8092 252.9 98.7529Z" fill="url(#paint0_linear_104_88)" fill-opacity="0.8"/>
<path d="M252.9 98.7529C380.343 97.1952 509.774 98.5382 637.366 98.5343L736.571 98.5139C758.454 98.5149 782.734 96.8758 803.981 101.216C815.987 103.668 823.914 121.661 823.896 134.054C823.842 163.86 823.771 193.683 823.797 223.486L823.851 419.256L823.869 632.802L823.878 703.614C823.86 762.725 828.789 775.612 777.787 810.115C750.143 828.808 723.215 845.938 693.907 861.981C644.881 889.181 567.192 926.879 513.568 946C445.27 923.607 269.914 836.684 220.643 787.294C209.974 776.602 203.144 763.56 202.619 747.566C201.264 706.304 202.56 664.421 202.532 623.111L202.544 365.995L202.458 210.897C202.44 183.738 201.533 155.502 203.055 128.539C204.741 98.6936 233.141 98.8092 252.9 98.7529Z" fill="url(#paint1_linear_104_88)" fill-opacity="0.2"/>
<path d="M549 177V618.6C549 638.227 545.373 656.36 538.12 673C531.293 690.067 521.693 704.573 509.32 716.52C496.947 728.467 482.653 737.64 466.44 744.04C450.227 750.867 432.947 753.853 414.6 753V747.24C429.96 741.267 443.187 731.453 454.28 717.8C465.8 704.573 474.547 689 480.52 671.08C486.493 653.587 489.48 635.453 489.48 616.68V177H549ZM491.4 223.72H489.48C489.053 212.627 484.787 203.24 476.68 195.56C469 187.453 459.613 183.4 448.52 183.4C448.52 183.4 447.027 183.4 444.04 183.4C441.48 183.4 440.2 183.4 440.2 183.4V177H491.4V223.72ZM547.08 223.72V177H598.28V183.4C598.28 183.4 596.787 183.4 593.8 183.4C591.24 183.4 589.96 183.4 589.96 183.4C578.867 183.4 569.267 187.453 561.16 195.56C553.48 203.24 549.427 212.627 549 223.72H547.08Z" fill="white"/>
<defs>
<linearGradient id="paint0_linear_104_88" x1="28" y1="453" x2="950.5" y2="463.5" gradientUnits="userSpaceOnUse">
<stop stop-color="#00FF88"/>
<stop offset="1" stop-color="#00D4FF"/>
</linearGradient>
<linearGradient id="paint1_linear_104_88" x1="513" y1="98" x2="513" y2="946" gradientUnits="userSpaceOnUse">
<stop stop-opacity="0"/>
<stop offset="1"/>
</linearGradient>
</defs>
</svg>
